26F Galaxy Sans-Regular.ufo
<glyph name="ampersand" format="2">
	<advance width="1040"/>
	<unicode hex="0026"/>
	<outline>
		<contour>
			<point x="636" y="120" type="curve" smooth="yes"/>
			<point x="430" y="120" type="line" smooth="yes"/>
			<point x="286" y="120"/>
			<point x="170" y="236"/>
			<point x="170" y="380" type="curve" smooth="yes"/>
			<point x="170" y="524"/>
			<point x="286" y="640"/>
			<point x="430" y="640" type="curve" smooth="yes"/>
			<point x="550" y="640" type="line"/>
			<point x="550" y="760" type="line"/>
			<point x="430" y="760" type="line" smooth="yes"/>
			<point x="220" y="760"/>
			<point x="50" y="590"/>
			<point x="50" y="380" type="curve" smooth="yes"/>
			<point x="50" y="170"/>
			<point x="220" y="0"/>
			<point x="430" y="0" type="curve" smooth="yes"/>
			<point x="636" y="0" type="line" smooth="yes"/>
			<point x="669" y="0"/>
			<point x="696" y="27"/>
			<point x="696" y="60" type="curve" smooth="yes"/>
			<point x="696" y="93"/>
			<point x="669" y="120"/>
		</contour>
		<contour>
			<point x="940" y="54" type="curve" smooth="yes"/>
			<point x="940" y="826" type="line" smooth="yes"/>
			<point x="940" y="859"/>
			<point x="913" y="886"/>
			<point x="880" y="886" type="curve" smooth="yes"/>
			<point x="847" y="886"/>
			<point x="820" y="859"/>
			<point x="820" y="826" type="curve" smooth="yes"/>
			<point x="820" y="54" type="line" smooth="yes"/>
			<point x="820" y="21"/>
			<point x="847" y="-6"/>
			<point x="880" y="-6" type="curve" smooth="yes"/>
			<point x="913" y="-6"/>
			<point x="940" y="21"/>
		</contour>
		<contour>
			<point x="880" y="1400" type="curve" smooth="yes"/>
			<point x="530" y="1400" type="line" smooth="yes"/>
			<point x="320" y="1400"/>
			<point x="150" y="1230"/>
			<point x="150" y="1020" type="curve" smooth="yes"/>
			<point x="150" y="810"/>
			<point x="320" y="640"/>
			<point x="530" y="640" type="curve" smooth="yes"/>
			<point x="616" y="640" type="line" smooth="yes"/>
			<point x="649" y="640"/>
			<point x="676" y="667"/>
			<point x="676" y="700" type="curve" smooth="yes"/>
			<point x="676" y="733"/>
			<point x="649" y="760"/>
			<point x="616" y="760" type="curve" smooth="yes"/>
			<point x="530" y="760" type="line" smooth="yes"/>
			<point x="386" y="760"/>
			<point x="270" y="876"/>
			<point x="270" y="1020" type="curve" smooth="yes"/>
			<point x="270" y="1164"/>
			<point x="386" y="1280"/>
			<point x="530" y="1280" type="curve" smooth="yes"/>
			<point x="880" y="1280" type="line" smooth="yes"/>
			<point x="913" y="1280"/>
			<point x="940" y="1307"/>
			<point x="940" y="1340" type="curve" smooth="yes"/>
			<point x="940" y="1373"/>
			<point x="913" y="1400"/>
		</contour>
	</outline>
</glyph>
<glyph name="quotesingle" format="2">
	<advance width="320"/>
	<unicode hex="0027"/>
	<outline>
		<contour>
			<point x="100" y="1540" type="curve" smooth="yes"/>
			<point x="100" y="1225" type="line" smooth="yes"/>
			<point x="100" y="1192"/>
			<point x="127" y="1165"/>
			<point x="160" y="1165" type="curve" smooth="yes"/>
			<point x="193" y="1165"/>
			<point x="220" y="1192"/>
			<point x="220" y="1225" type="curve" smooth="yes"/>
			<point x="220" y="1540" type="line" smooth="yes"/>
			<point x="220" y="1573"/>
			<point x="193" y="1600"/>
			<point x="160" y="1600" type="curve" smooth="yes"/>
			<point x="127" y="1600"/>
			<point x="100" y="1573"/>
		</contour>
	</outline>
</glyph>
<glyph name="period" format="2">
	<advance width="350"/>
	<unicode hex="002E"/>
	<outline>
		<contour>
			<point x="175" y="0" type="curve" smooth="yes"/>
			<point x="216" y="0"/>
			<point x="250" y="34"/>
			<point x="250" y="75" type="curve" smooth="yes"/>
			<point x="250" y="116"/>
			<point x="216" y="150"/>
			<point x="175" y="150" type="curve" smooth="yes"/>
			<point x="134" y="150"/>
			<point x="100" y="116"/>
			<point x="100" y="75" type="curve" smooth="yes"/>
			<point x="100" y="34"/>
			<point x="134" y="0"/>
		</contour>
	</outline>
</glyph>
<glyph name="slash" format="2">
	<advance width="742"/>
	<unicode hex="002F"/>
	<outline>
		<contour>
			<point x="160" y="1" type="curve" smooth="yes"/>
			<point x="187" y="1"/>
			<point x="210" y="19"/>
			<point x="217" y="44" type="curve" smooth="yes"/>
			<point x="639" y="1320" type="line" smooth="yes"/>
			<point x="650" y="1354"/>
			<point x="628" y="1399"/>
			<point x="582" y="1399" type="curve" smooth="yes"/>
			<point x="555" y="1399"/>
			<point x="532" y="1381"/>
			<point x="525" y="1356" type="curve" smooth="yes"/>
			<point x="103" y="80" type="line" smooth="yes"/>
			<point x="92" y="46"/>
			<point x="114" y="1"/>
		</contour>
	</outline>
</glyph>
<glyph name="one" format="2">
	<advance width="896"/>
	<unicode hex="0031"/>
	<outline>
		<contour>
			<point x="588" y="60" type="curve" smooth="yes"/>
			<point x="588" y="440" type="line" smooth="yes"/>
			<point x="588" y="473"/>
			<point x="561" y="500"/>
			<point x="528" y="500" type="curve" smooth="yes"/>
			<point x="495" y="500"/>
			<point x="468" y="473"/>
			<point x="468" y="440" type="curve" smooth="yes"/>
			<point x="468" y="60" type="line" smooth="yes"/>
			<point x="468" y="27"/>
			<point x="495" y="0"/>
			<point x="528" y="0" type="curve" smooth="yes"/>
			<point x="561" y="0"/>
			<point x="588" y="27"/>
		</contour>
		<contour>
			<point x="494" y="1391" type="curve" smooth="yes"/>
			<point x="197" y="1187" type="line" smooth="yes"/>
			<point x="181" y="1177"/>
			<point x="171" y="1159"/>
			<point x="171" y="1138" type="curve" smooth="yes"/>
			<point x="171" y="1105"/>
			<point x="198" y="1078"/>
			<point x="231" y="1078" type="curve" smooth="yes"/>
			<point x="244" y="1078"/>
			<point x="255" y="1082"/>
			<point x="265" y="1089" type="curve" smooth="yes"/>
			<point x="562" y="1293" type="line" smooth="yes"/>
			<point x="578" y="1303"/>
			<point x="588" y="1321"/>
			<point x="588" y="1342" type="curve" smooth="yes"/>
			<point x="588" y="1375"/>
			<point x="561" y="1402"/>
			<point x="528" y="1402" type="curve" smooth="yes"/>
			<point x="515" y="1402"/>
			<point x="504" y="1398"/>
		</contour>
		<contour>
			<point x="588" y="840" type="curve" smooth="yes"/>
			<point x="588" y="1340" type="line" smooth="yes"/>
			<point x="588" y="1373"/>
			<point x="561" y="1400"/>
			<point x="528" y="1400" type="curve" smooth="yes"/>
			<point x="495" y="1400"/>
			<point x="468" y="1373"/>
			<point x="468" y="1340" type="curve" smooth="yes"/>
			<point x="468" y="840" type="line" smooth="yes"/>
			<point x="468" y="807"/>
			<point x="495" y="780"/>
			<point x="528" y="780" type="curve" smooth="yes"/>
			<point x="561" y="780"/>
			<point x="588" y="807"/>
		</contour>
	</outline>
</glyph>
<glyph name="two" format="2">
	<advance width="896"/>
	<unicode hex="0032"/>
	<outline>
		<contour>
			<point x="160" y="0" type="curve" smooth="yes"/>
			<point x="736" y="0" type="line" smooth="yes"/>
			<point x="769" y="0"/>
			<point x="796" y="27"/>
			<point x="796" y="60" type="curve" smooth="yes"/>
			<point x="796" y="93"/>
			<point x="769" y="120"/>
			<point x="736" y="120" type="curve" smooth="yes"/>
			<point x="160" y="120" type="line" smooth="yes"/>
			<point x="127" y="120"/>
			<point x="100" y="93"/>
			<point x="100" y="60" type="curve" smooth="yes"/>
			<point x="100" y="27"/>
			<point x="127" y="0"/>
		</contour>
		<contour>
			<point x="201" y="25" type="curve" smooth="yes"/>
			<point x="544" y="464" type="line" smooth="yes"/>
			<point x="552" y="474"/>
			<point x="557" y="487"/>
			<point x="557" y="501" type="curve" smooth="yes"/>
			<point x="557" y="534"/>
			<point x="530" y="561"/>
			<point x="497" y="561" type="curve" smooth="yes"/>
			<point x="478" y="561"/>
			<point x="461" y="552"/>
			<point x="450" y="538" type="curve" smooth="yes"/>
			<point x="107" y="100" type="line" smooth="yes"/>
			<point x="99" y="90"/>
			<point x="94" y="77"/>
			<point x="94" y="63" type="curve" smooth="yes"/>
			<point x="94" y="29"/>
			<point x="121" y="3"/>
			<point x="154" y="3" type="curve" smooth="yes"/>
			<point x="173" y="3"/>
			<point x="190" y="11"/>
		</contour>
		<contour>
			<point x="218" y="1050" type="curve" smooth="yes"/>
			<point x="218" y="1177"/>
			<point x="321" y="1280"/>
			<point x="448" y="1280" type="curve" smooth="yes"/>
			<point x="575" y="1280"/>
			<point x="678" y="1177"/>
			<point x="678" y="1050" type="curve" smooth="yes"/>
			<point x="678" y="1017"/>
			<point x="705" y="990"/>
			<point x="738" y="990" type="curve" smooth="yes"/>
			<point x="771" y="990"/>
			<point x="798" y="1017"/>
			<point x="798" y="1050" type="curve" smooth="yes"/>
			<point x="798" y="1243"/>
			<point x="641" y="1400"/>
			<point x="448" y="1400" type="curve" smooth="yes"/>
			<point x="255" y="1400"/>
			<point x="98" y="1243"/>
			<point x="98" y="1050" type="curve" smooth="yes"/>
			<point x="98" y="1017"/>
			<point x="125" y="990"/>
			<point x="158" y="990" type="curve" smooth="yes"/>
			<point x="191" y="990"/>
			<point x="218" y="1017"/>
		</contour>
	</outline>
</glyph>
<glyph name="four" format="2">
	<advance width="896"/>
	<unicode hex="0034"/>
	<outline>
		<contour>
			<point x="475" y="460" type="curve" smooth="yes"/>
			<point x="140" y="460" type="line" smooth="yes"/>
			<point x="107" y="460"/>
			<point x="80" y="433"/>
			<point x="80" y="400" type="curve" smooth="yes"/>
			<point x="80" y="367"/>
			<point x="107" y="340"/>
			<point x="140" y="340" type="curve" smooth="yes"/>
			<point x="475" y="340" type="line" smooth="yes"/>
			<point x="508" y="340"/>
			<point x="535" y="367"/>
			<point x="535" y="400" type="curve" smooth="yes"/>
			<point x="535" y="433"/>
			<point x="508" y="460"/>
		</contour>
		<contour>
			<point x="675" y="1000" type="curve" smooth="yes"/>
			<point x="675" y="60" type="line" smooth="yes"/>
			<point x="675" y="27"/>
			<point x="702" y="0"/>
			<point x="735" y="0" type="curve" smooth="yes"/>
			<point x="768" y="0"/>
			<point x="795" y="27"/>
			<point x="795" y="60" type="curve" smooth="yes"/>
			<point x="795" y="1000" type="line" smooth="yes"/>
			<point x="795" y="1033"/>
			<point x="768" y="1060"/>
			<point x="735" y="1060" type="curve" smooth="yes"/>
			<point x="702" y="1060"/>
			<point x="675" y="1033"/>
		</contour>
		<contour>
			<point x="180" y="375" type="curve" smooth="yes"/>
			<point x="602" y="1314" type="line" smooth="yes"/>
			<point x="606" y="1322"/>
			<point x="608" y="1331"/>
			<point x="608" y="1340" type="curve" smooth="yes"/>
			<point x="608" y="1373"/>
			<point x="581" y="1400"/>
			<point x="548" y="1400" type="curve" smooth="yes"/>
			<point x="524" y="1400"/>
			<point x="503" y="1386"/>
			<point x="494" y="1366" type="curve" smooth="yes"/>
			<point x="70" y="425" type="line" smooth="yes"/>
			<point x="67" y="417"/>
			<point x="65" y="409"/>
			<point x="65" y="400" type="curve" smooth="yes"/>
			<point x="65" y="367"/>
			<point x="92" y="340"/>
			<point x="125" y="340" type="curve" smooth="yes"/>
			<point x="149" y="340"/>
			<point x="170" y="355"/>
		</contour>
	</outline>
</glyph>
<glyph name="five" format="2">
	<advance width="896"/>
	<unicode hex="0035"/>
	<outline>
		<contour>
			<point x="448" y="680" type="curve" smooth="yes"/>
			<point x="575" y="680"/>
			<point x="678" y="577"/>
			<point x="678" y="450" type="curve" smooth="yes"/>
			<point x="678" y="350" type="line" smooth="yes"/>
			<point x="678" y="223"/>
			<point x="575" y="120"/>
			<point x="448" y="120" type="curve" smooth="yes"/>
			<point x="321" y="120"/>
			<point x="218" y="223"/>
			<point x="218" y="350" type="curve" smooth="yes"/>
			<point x="218" y="383"/>
			<point x="191" y="410"/>
			<point x="158" y="410" type="curve" smooth="yes"/>
			<point x="125" y="410"/>
			<point x="98" y="383"/>
			<point x="98" y="350" type="curve" smooth="yes"/>
			<point x="98" y="157"/>
			<point x="255" y="0"/>
			<point x="448" y="0" type="curve" smooth="yes"/>
			<point x="641" y="0"/>
			<point x="798" y="157"/>
			<point x="798" y="350" type="curve" smooth="yes"/>
			<point x="798" y="450" type="line" smooth="yes"/>
			<point x="798" y="643"/>
			<point x="641" y="800"/>
			<point x="448" y="800" type="curve" smooth="yes"/>
			<point x="415" y="800"/>
			<point x="388" y="773"/>
			<point x="388" y="740" type="curve" smooth="yes"/>
			<point x="388" y="707"/>
			<point x="415" y="680"/>
		</contour>
		<contour>
			<point x="221" y="930" type="curve" smooth="yes"/>
			<point x="221" y="1338" type="line"/>
			<point x="101" y="1338" type="line"/>
			<point x="101" y="930" type="line" smooth="yes"/>
			<point x="101" y="897"/>
			<point x="128" y="870"/>
			<point x="161" y="870" type="curve" smooth="yes"/>
			<point x="194" y="870"/>
			<point x="221" y="897"/>
		</contour>
		<contour>
			<point x="161" y="1280" type="curve" smooth="yes"/>
			<point x="753" y="1280" type="line" smooth="yes"/>
			<point x="786" y="1280"/>
			<point x="813" y="1307"/>
			<point x="813" y="1340" type="curve" smooth="yes"/>
			<point x="813" y="1373"/>
			<point x="786" y="1400"/>
			<point x="753" y="1400" type="curve" smooth="yes"/>
			<point x="161" y="1400" type="line" smooth="yes"/>
			<point x="128" y="1400"/>
			<point x="101" y="1373"/>
			<point x="101" y="1340" type="curve" smooth="yes"/>
			<point x="101" y="1307"/>
			<point x="128" y="1280"/>
		</contour>
	</outline>
</glyph>
<glyph name="nine" format="2">
	<advance width="896"/>
	<unicode hex="0039"/>
	<outline>
		<contour>
			<point x="450" y="820" type="curve" smooth="yes"/>
			<point x="323" y="820"/>
			<point x="220" y="923"/>
			<point x="220" y="1050" type="curve" smooth="yes"/>
			<point x="220" y="1177"/>
			<point x="323" y="1280"/>
			<point x="450" y="1280" type="curve" smooth="yes"/>
			<point x="577" y="1280"/>
			<point x="680" y="1177"/>
			<point x="680" y="1050" type="curve" smooth="yes"/>
			<point x="680" y="923"/>
			<point x="577" y="820"/>
		</contour>
		<contour>
			<point x="450" y="700" type="curve" smooth="yes"/>
			<point x="643" y="700"/>
			<point x="800" y="857"/>
			<point x="800" y="1050" type="curve" smooth="yes"/>
			<point x="800" y="1243"/>
			<point x="643" y="1400"/>
			<point x="450" y="1400" type="curve" smooth="yes"/>
			<point x="257" y="1400"/>
			<point x="100" y="1243"/>
			<point x="100" y="1050" type="curve" smooth="yes"/>
			<point x="100" y="857"/>
			<point x="257" y="700"/>
		</contour>
		<contour>
			<point x="367" y="31" type="curve" smooth="yes"/>
			<point x="593" y="462" type="line" smooth="yes"/>
			<point x="598" y="470"/>
			<point x="600" y="480"/>
			<point x="600" y="490" type="curve" smooth="yes"/>
			<point x="600" y="523"/>
			<point x="573" y="550"/>
			<point x="540" y="550" type="curve" smooth="yes"/>
			<point x="517" y="550"/>
			<point x="497" y="537"/>
			<point x="487" y="518" type="curve" smooth="yes"/>
			<point x="262" y="89" type="line" smooth="yes"/>
			<point x="257" y="80"/>
			<point x="254" y="70"/>
			<point x="254" y="60" type="curve" smooth="yes"/>
			<point x="254" y="27"/>
			<point x="281" y="0"/>
			<point x="314" y="0" type="curve" smooth="yes"/>
			<point x="337" y="0"/>
			<point x="356" y="12"/>
		</contour>
	</outline>
</glyph>
<glyph name="semicolon" format="2">
	<advance width="414"/>
	<unicode hex="003B"/>
	<outline>
		<contour>
			<point x="239" y="731" type="curve" smooth="yes"/>
			<point x="280" y="731"/>
			<point x="314" y="765"/>
			<point x="314" y="806" type="curve" smooth="yes"/>
			<point x="314" y="847"/>
			<point x="280" y="881"/>
			<point x="239" y="881" type="curve" smooth="yes"/>
			<point x="198" y="881"/>
			<point x="164" y="847"/>
			<point x="164" y="806" type="curve" smooth="yes"/>
			<point x="164" y="765"/>
			<point x="198" y="731"/>
		</contour>
		<component base="comma"/>
	</outline>
</glyph>
<glyph name="less" format="2">
	<advance width="1249"/>
	<unicode hex="003C"/>
	<outline>
		<contour>
			<point x="1116" y="286" type="curve" smooth="yes"/>
			<point x="691" y="484" type="line" smooth="yes"/>
			<point x="683" y="488"/>
			<point x="674" y="490"/>
			<point x="665" y="490" type="curve" smooth="yes"/>
			<point x="632" y="490"/>
			<point x="605" y="463"/>
			<point x="605" y="430" type="curve" smooth="yes"/>
			<point x="605" y="407"/>
			<point x="619" y="386"/>
			<point x="638" y="376" type="curve" smooth="yes"/>
			<point x="1063" y="178" type="line" smooth="yes"/>
			<point x="1071" y="174"/>
			<point x="1080" y="172"/>
			<point x="1089" y="172" type="curve" smooth="yes"/>
			<point x="1122" y="172"/>
			<point x="1149" y="199"/>
			<point x="1149" y="232" type="curve" smooth="yes"/>
			<point x="1149" y="255"/>
			<point x="1135" y="276"/>
		</contour>
		<contour>
			<point x="1062" y="1222" type="curve" smooth="yes"/>
			<point x="133" y="781" type="line" smooth="yes"/>
			<point x="113" y="771"/>
			<point x="100" y="751"/>
			<point x="100" y="727" type="curve" smooth="yes"/>
			<point x="100" y="694"/>
			<point x="127" y="667"/>
			<point x="160" y="667" type="curve" smooth="yes"/>
			<point x="169" y="667"/>
			<point x="179" y="669"/>
			<point x="187" y="673" type="curve" smooth="yes"/>
			<point x="1116" y="1114" type="line" smooth="yes"/>
			<point x="1136" y="1124"/>
			<point x="1149" y="1144"/>
			<point x="1149" y="1168" type="curve" smooth="yes"/>
			<point x="1149" y="1201"/>
			<point x="1122" y="1228"/>
			<point x="1089" y="1228" type="curve" smooth="yes"/>
			<point x="1080" y="1228"/>
			<point x="1070" y="1226"/>
		</contour>
	</outline>
</glyph>
<glyph name="equal" format="2">
	<advance width="1007"/>
	<unicode hex="003D"/>
	<outline>
		<contour>
			<point x="887" y="515" type="curve" smooth="yes"/>
			<point x="120" y="515" type="line" smooth="yes"/>
			<point x="87" y="515"/>
			<point x="60" y="488"/>
			<point x="60" y="455" type="curve" smooth="yes"/>
			<point x="60" y="422"/>
			<point x="87" y="395"/>
			<point x="120" y="395" type="curve" smooth="yes"/>
			<point x="887" y="395" type="line" smooth="yes"/>
			<point x="920" y="395"/>
			<point x="947" y="422"/>
			<point x="947" y="455" type="curve" smooth="yes"/>
			<point x="947" y="488"/>
			<point x="920" y="515"/>
		</contour>
		<contour>
			<point x="887" y="1005" type="curve" smooth="yes"/>
			<point x="120" y="1005" type="line" smooth="yes"/>
			<point x="87" y="1005"/>
			<point x="60" y="978"/>
			<point x="60" y="945" type="curve" smooth="yes"/>
			<point x="60" y="912"/>
			<point x="87" y="885"/>
			<point x="120" y="885" type="curve" smooth="yes"/>
			<point x="887" y="885" type="line" smooth="yes"/>
			<point x="920" y="885"/>
			<point x="947" y="912"/>
			<point x="947" y="945" type="curve" smooth="yes"/>
			<point x="947" y="978"/>
			<point x="920" y="1005"/>
		</contour>
	</outline>
</glyph>
<glyph name="at" format="2">
	<advance width="1354"/>
	<unicode hex="0040"/>
	<outline>
		<contour>
			<point x="772" y="490" type="curve" smooth="yes"/>
			<point x="656" y="490"/>
			<point x="562" y="584"/>
			<point x="562" y="700" type="curve" smooth="yes"/>
			<point x="562" y="816"/>
			<point x="656" y="910"/>
			<point x="772" y="910" type="curve" smooth="yes"/>
			<point x="888" y="910"/>
			<point x="982" y="816"/>
			<point x="982" y="700" type="curve" smooth="yes"/>
			<point x="982" y="584"/>
			<point x="888" y="490"/>
		</contour>
		<contour>
			<point x="772" y="370" type="curve" smooth="yes"/>
			<point x="954" y="370"/>
			<point x="1102" y="518"/>
			<point x="1102" y="700" type="curve" smooth="yes"/>
			<point x="1102" y="882"/>
			<point x="954" y="1030"/>
			<point x="772" y="1030" type="curve" smooth="yes"/>
			<point x="590" y="1030"/>
			<point x="442" y="882"/>
			<point x="442" y="700" type="curve" smooth="yes"/>
			<point x="442" y="518"/>
			<point x="590" y="370"/>
		</contour>
		<contour>
			<point x="1171" y="120" type="curve" smooth="yes"/>
			<point x="780" y="120" type="line" smooth="yes"/>
			<point x="631" y="120"/>
			<point x="483" y="176"/>
			<point x="370" y="289" type="curve" smooth="yes"/>
			<point x="143" y="516"/>
			<point x="143" y="884"/>
			<point x="370" y="1111" type="curve" smooth="yes"/>
			<point x="584" y="1325"/>
			<point x="927" y="1336"/>
			<point x="1155" y="1143" type="curve" smooth="yes"/>
			<point x="1165" y="1134"/>
			<point x="1179" y="1129"/>
			<point x="1194" y="1129" type="curve" smooth="yes"/>
			<point x="1227" y="1129"/>
			<point x="1254" y="1156"/>
			<point x="1254" y="1189" type="curve" smooth="yes"/>
			<point x="1254" y="1207"/>
			<point x="1245" y="1224"/>
			<point x="1232" y="1235" type="curve" smooth="yes"/>
			<point x="957" y="1468"/>
			<point x="544" y="1455"/>
			<point x="285" y="1196" type="curve" smooth="yes"/>
			<point x="11" y="922"/>
			<point x="11" y="478"/>
			<point x="285" y="204" type="curve" smooth="yes"/>
			<point x="422" y="68"/>
			<point x="601" y="0"/>
			<point x="780" y="0" type="curve" smooth="yes"/>
			<point x="1171" y="0" type="line" smooth="yes"/>
			<point x="1204" y="0"/>
			<point x="1231" y="27"/>
			<point x="1231" y="60" type="curve" smooth="yes"/>
			<point x="1231" y="93"/>
			<point x="1204" y="120"/>
		</contour>
	</outline>
</glyph>
<glyph name="A" format="2">
	<advance width="1412"/>
	<unicode hex="0041"/>
	<unicode hex="0061"/>
	<anchor x="706" y="0" name="bottom"/>
	<anchor x="1283" y="-1" name="ogonek"/>
	<anchor x="706" y="1400" name="top"/>
	<outline>
		<contour>
			<point x="185" y="35" type="curve" smooth="yes"/>
			<point x="439" y="637" type="line" smooth="yes"/>
			<point x="442" y="644"/>
			<point x="444" y="652"/>
			<point x="444" y="661" type="curve" smooth="yes"/>
			<point x="444" y="694"/>
			<point x="417" y="721"/>
			<point x="384" y="721" type="curve" smooth="yes"/>
			<point x="360" y="721"/>
			<point x="339" y="707"/>
			<point x="329" y="686" type="curve" smooth="yes"/>
			<point x="75" y="84" type="line" smooth="yes"/>
			<point x="72" y="77"/>
			<point x="70" y="69"/>
			<point x="70" y="60" type="curve" smooth="yes"/>
			<point x="70" y="27"/>
			<point x="97" y="0"/>
			<point x="130" y="0" type="curve" smooth="yes"/>
			<point x="154" y="0"/>
			<point x="175" y="14"/>
		</contour>
		<contour>
			<point x="1336" y="84" type="curve"/>
			<point x="788" y="1365" type="line" smooth="yes"/>
			<point x="778" y="1386"/>
			<point x="758" y="1400"/>
			<point x="733" y="1400" type="curve" smooth="yes"/>
			<point x="700" y="1400"/>
			<point x="673" y="1373"/>
			<point x="673" y="1340" type="curve" smooth="yes"/>
			<point x="673" y="1331"/>
			<point x="675" y="1323"/>
			<point x="679" y="1316" type="curve"/>
			<point x="1227" y="35" type="line" smooth="yes"/>
			<point x="1237" y="14"/>
			<point x="1257" y="0"/>
			<point x="1282" y="0" type="curve" smooth="yes"/>
			<point x="1315" y="0"/>
			<point x="1342" y="27"/>
			<point x="1342" y="60" type="curve" smooth="yes"/>
			<point x="1342" y="69"/>
			<point x="1340" y="77"/>
		</contour>
	</outline>
</glyph>
<glyph name="H" format="2">
	<advance width="1326"/>
	<unicode hex="0048"/>
	<unicode hex="0068"/>
	<anchor x="663" y="0" name="bottom"/>
	<anchor x="663" y="700" name="center"/>
	<anchor x="663" y="1400" name="top"/>
	<anchor x="20" y="1400" name="topleft"/>
	<outline>
		<contour>
			<point x="220" y="60" type="curve" smooth="yes"/>
			<point x="220" y="351" type="line" smooth="yes"/>
			<point x="220" y="384"/>
			<point x="193" y="411"/>
			<point x="160" y="411" type="curve" smooth="yes"/>
			<point x="127" y="411"/>
			<point x="100" y="384"/>
			<point x="100" y="351" type="curve" smooth="yes"/>
			<point x="100" y="60" type="line" smooth="yes"/>
			<point x="100" y="27"/>
			<point x="127" y="0"/>
			<point x="160" y="0" type="curve" smooth="yes"/>
			<point x="193" y="0"/>
			<point x="220" y="27"/>
		</contour>
		<contour>
			<point x="100" y="1340" type="curve" smooth="yes"/>
			<point x="100" y="700" type="line" smooth="yes"/>
			<point x="100" y="667"/>
			<point x="127" y="640"/>
			<point x="160" y="640" type="curve" smooth="yes"/>
			<point x="193" y="640"/>
			<point x="220" y="667"/>
			<point x="220" y="700" type="curve" smooth="yes"/>
			<point x="220" y="1340" type="line" smooth="yes"/>
			<point x="220" y="1373"/>
			<point x="193" y="1400"/>
			<point x="160" y="1400" type="curve" smooth="yes"/>
			<point x="127" y="1400"/>
			<point x="100" y="1373"/>
		</contour>
		<contour>
			<point x="1166" y="760" type="line"/>
			<point x="160" y="760" type="line"/>
			<point x="160" y="640" type="line"/>
			<point x="1166" y="640" type="line"/>
		</contour>
		<contour>
			<point x="1106" y="700" type="curve" smooth="yes"/>
			<point x="1106" y="60" type="line" smooth="yes"/>
			<point x="1106" y="27"/>
			<point x="1133" y="0"/>
			<point x="1166" y="0" type="curve" smooth="yes"/>
			<point x="1199" y="0"/>
			<point x="1226" y="27"/>
			<point x="1226" y="60" type="curve" smooth="yes"/>
			<point x="1226" y="700" type="line" smooth="yes"/>
			<point x="1226" y="733"/>
			<point x="1199" y="760"/>
			<point x="1166" y="760" type="curve" smooth="yes"/>
			<point x="1133" y="760"/>
			<point x="1106" y="733"/>
		</contour>
		<contour>
			<point x="1226" y="1049" type="curve" smooth="yes"/>
			<point x="1226" y="1340" type="line" smooth="yes"/>
			<point x="1226" y="1373"/>
			<point x="1199" y="1400"/>
			<point x="1166" y="1400" type="curve" smooth="yes"/>
			<point x="1133" y="1400"/>
			<point x="1106" y="1373"/>
			<point x="1106" y="1340" type="curve" smooth="yes"/>
			<point x="1106" y="1049" type="line" smooth="yes"/>
			<point x="1106" y="1016"/>
			<point x="1133" y="989"/>
			<point x="1166" y="989" type="curve" smooth="yes"/>
			<point x="1199" y="989"/>
			<point x="1226" y="1016"/>
		</contour>
	</outline>
</glyph>
<glyph name="K" format="2">
	<advance width="1229"/>
	<unicode hex="004B"/>
	<unicode hex="006B"/>
	<anchor x="610" y="0" name="bottom"/>
	<anchor x="610" y="1400" name="top"/>
	<outline>
		<contour>
			<point x="220" y="60" type="curve" smooth="yes"/>
			<point x="220" y="1340" type="line" smooth="yes"/>
			<point x="220" y="1373"/>
			<point x="193" y="1400"/>
			<point x="160" y="1400" type="curve" smooth="yes"/>
			<point x="127" y="1400"/>
			<point x="100" y="1373"/>
			<point x="100" y="1340" type="curve" smooth="yes"/>
			<point x="100" y="60" type="line" smooth="yes"/>
			<point x="100" y="27"/>
			<point x="127" y="0"/>
			<point x="160" y="0" type="curve" smooth="yes"/>
			<point x="193" y="0"/>
			<point x="220" y="27"/>
		</contour>
		<contour>
			<point x="1141" y="103" type="curve" smooth="yes"/>
			<point x="501" y="742" type="line" smooth="yes"/>
			<point x="491" y="753"/>
			<point x="476" y="760"/>
			<point x="459" y="760" type="curve" smooth="yes"/>
			<point x="426" y="760"/>
			<point x="399" y="733"/>
			<point x="399" y="700" type="curve" smooth="yes"/>
			<point x="399" y="683"/>
			<point x="406" y="668"/>
			<point x="417" y="658" type="curve" smooth="yes"/>
			<point x="1056" y="18" type="line" smooth="yes"/>
			<point x="1067" y="7"/>
			<point x="1082" y="0"/>
			<point x="1099" y="0" type="curve" smooth="yes"/>
			<point x="1132" y="0"/>
			<point x="1159" y="27"/>
			<point x="1159" y="60" type="curve" smooth="yes"/>
			<point x="1159" y="77"/>
			<point x="1152" y="92"/>
		</contour>
		<contour>
			<point x="1056" y="1382" type="curve" smooth="yes"/>
			<point x="715" y="1040" type="line" smooth="yes"/>
			<point x="704" y="1030"/>
			<point x="697" y="1015"/>
			<point x="697" y="998" type="curve" smooth="yes"/>
			<point x="697" y="965"/>
			<point x="724" y="938"/>
			<point x="757" y="938" type="curve" smooth="yes"/>
			<point x="774" y="938"/>
			<point x="789" y="945"/>
			<point x="799" y="956" type="curve" smooth="yes"/>
			<point x="1141" y="1297" type="line" smooth="yes"/>
			<point x="1152" y="1308"/>
			<point x="1159" y="1323"/>
			<point x="1159" y="1340" type="curve" smooth="yes"/>
			<point x="1159" y="1373"/>
			<point x="1132" y="1400"/>
			<point x="1099" y="1400" type="curve" smooth="yes"/>
			<point x="1082" y="1400"/>
			<point x="1067" y="1393"/>
		</contour>
	</outline>
</glyph>
<glyph name="M" format="2">
	<advance width="1520"/>
	<unicode hex="004D"/>
	<unicode hex="006D"/>
	<anchor x="690" y="0" name="bottom"/>
	<anchor x="760" y="1400" name="top"/>
	<outline>
		<contour>
			<point x="100" y="1340" type="curve" smooth="yes"/>
			<point x="100" y="60" type="line" smooth="yes"/>
			<point x="100" y="27"/>
			<point x="127" y="0"/>
			<point x="160" y="0" type="curve" smooth="yes"/>
			<point x="193" y="0"/>
			<point x="220" y="27"/>
			<point x="220" y="60" type="curve" smooth="yes"/>
			<point x="220" y="1340" type="line" smooth="yes"/>
			<point x="220" y="1373"/>
			<point x="193" y="1400"/>
			<point x="160" y="1400" type="curve" smooth="yes"/>
			<point x="127" y="1400"/>
			<point x="100" y="1373"/>
		</contour>
		<contour>
			<point x="804" y="739" type="curve" smooth="yes"/>
			<point x="208" y="1377" type="line" smooth="yes"/>
			<point x="197" y="1388"/>
			<point x="181" y="1396"/>
			<point x="164" y="1396" type="curve" smooth="yes"/>
			<point x="131" y="1396"/>
			<point x="104" y="1369"/>
			<point x="104" y="1336" type="curve" smooth="yes"/>
			<point x="104" y="1320"/>
			<point x="110" y="1305"/>
			<point x="120" y="1294" type="curve" smooth="yes"/>
			<point x="716" y="657" type="line" smooth="yes"/>
			<point x="727" y="645"/>
			<point x="743" y="638"/>
			<point x="760" y="638" type="curve" smooth="yes"/>
			<point x="793" y="638"/>
			<point x="820" y="665"/>
			<point x="820" y="698" type="curve" smooth="yes"/>
			<point x="820" y="714"/>
			<point x="814" y="728"/>
		</contour>
		<contour>
			<point x="1300" y="1340" type="curve" smooth="yes"/>
			<point x="1300" y="60" type="line" smooth="yes"/>
			<point x="1300" y="27"/>
			<point x="1327" y="0"/>
			<point x="1360" y="0" type="curve" smooth="yes"/>
			<point x="1393" y="0"/>
			<point x="1420" y="27"/>
			<point x="1420" y="60" type="curve" smooth="yes"/>
			<point x="1420" y="1340" type="line" smooth="yes"/>
			<point x="1420" y="1373"/>
			<point x="1393" y="1400"/>
			<point x="1360" y="1400" type="curve" smooth="yes"/>
			<point x="1327" y="1400"/>
			<point x="1300" y="1373"/>
		</contour>
	</outline>
</glyph>
<glyph name="O" format="2">
	<advance width="1560"/>
	<unicode hex="004F"/>
	<unicode hex="006F"/>
	<anchor x="780" y="0" name="bottom"/>
	<anchor x="780" y="700" name="center"/>
	<anchor x="780" y="0" name="ogonek"/>
	<anchor x="780" y="1400" name="top"/>
	<anchor x="40" y="1400" name="topleft"/>
	<anchor x="1520" y="1400" name="topright"/>
	<outline>
		<contour>
			<point x="285" y="1136" type="curve" smooth="yes"/>
			<point x="318" y="1136"/>
			<point x="345" y="1163"/>
			<point x="345" y="1196" type="curve" smooth="yes"/>
			<point x="345" y="1229"/>
			<point x="318" y="1256"/>
			<point x="285" y="1256" type="curve" smooth="yes"/>
			<point x="252" y="1256"/>
			<point x="225" y="1229"/>
			<point x="225" y="1196" type="curve" smooth="yes"/>
			<point x="225" y="1163"/>
			<point x="252" y="1136"/>
		</contour>
		<contour>
			<point x="780" y="1280" type="curve" smooth="yes"/>
			<point x="1101" y="1280"/>
			<point x="1360" y="1021"/>
			<point x="1360" y="700" type="curve" smooth="yes"/>
			<point x="1360" y="379"/>
			<point x="1101" y="120"/>
			<point x="780" y="120" type="curve" smooth="yes"/>
			<point x="459" y="120"/>
			<point x="200" y="379"/>
			<point x="200" y="700" type="curve" smooth="yes"/>
			<point x="200" y="733"/>
			<point x="173" y="760"/>
			<point x="140" y="760" type="curve" smooth="yes"/>
			<point x="107" y="760"/>
			<point x="80" y="733"/>
			<point x="80" y="700" type="curve" smooth="yes"/>
			<point x="80" y="313"/>
			<point x="393" y="0"/>
			<point x="780" y="0" type="curve" smooth="yes"/>
			<point x="1167" y="0"/>
			<point x="1480" y="313"/>
			<point x="1480" y="700" type="curve" smooth="yes"/>
			<point x="1480" y="1087"/>
			<point x="1167" y="1400"/>
			<point x="780" y="1400" type="curve" smooth="yes"/>
			<point x="747" y="1400"/>
			<point x="720" y="1373"/>
			<point x="720" y="1340" type="curve" smooth="yes"/>
			<point x="720" y="1307"/>
			<point x="747" y="1280"/>
		</contour>
	</outline>
</glyph>
<glyph name="Q" format="2">
	<advance width="1560"/>
	<unicode hex="0051"/>
	<unicode hex="0071"/>
	<anchor x="780" y="0" name="bottom"/>
	<anchor x="780" y="1400" name="top"/>
	<outline>
		<contour>
			<point x="1461" y="102" type="curve" smooth="yes"/>
			<point x="1046" y="518" type="line" smooth="yes"/>
			<point x="1035" y="529"/>
			<point x="1020" y="536"/>
			<point x="1003" y="536" type="curve" smooth="yes"/>
			<point x="970" y="536"/>
			<point x="943" y="509"/>
			<point x="943" y="476" type="curve" smooth="yes"/>
			<point x="943" y="459"/>
			<point x="950" y="444"/>
			<point x="961" y="433" type="curve" smooth="yes"/>
			<point x="1377" y="18" type="line" smooth="yes"/>
			<point x="1387" y="7"/>
			<point x="1402" y="0"/>
			<point x="1419" y="0" type="curve" smooth="yes"/>
			<point x="1452" y="0"/>
			<point x="1479" y="27"/>
			<point x="1479" y="60" type="curve" smooth="yes"/>
			<point x="1479" y="77"/>
			<point x="1472" y="92"/>
		</contour>
		<contour>
			<point x="780" y="120" type="curve" smooth="yes"/>
			<point x="459" y="120"/>
			<point x="200" y="379"/>
			<point x="200" y="700" type="curve" smooth="yes"/>
			<point x="200" y="1021"/>
			<point x="459" y="1280"/>
			<point x="780" y="1280" type="curve" smooth="yes"/>
			<point x="1101" y="1280"/>
			<point x="1360" y="1021"/>
			<point x="1360" y="700" type="curve" smooth="yes"/>
			<point x="1360" y="667"/>
			<point x="1387" y="640"/>
			<point x="1420" y="640" type="curve" smooth="yes"/>
			<point x="1453" y="640"/>
			<point x="1480" y="667"/>
			<point x="1480" y="700" type="curve" smooth="yes"/>
			<point x="1480" y="1087"/>
			<point x="1167" y="1400"/>
			<point x="780" y="1400" type="curve" smooth="yes"/>
			<point x="393" y="1400"/>
			<point x="80" y="1087"/>
			<point x="80" y="700" type="curve" smooth="yes"/>
			<point x="80" y="313"/>
			<point x="393" y="0"/>
			<point x="780" y="0" type="curve" smooth="yes"/>
			<point x="813" y="0"/>
			<point x="840" y="27"/>
			<point x="840" y="60" type="curve" smooth="yes"/>
			<point x="840" y="93"/>
			<point x="813" y="120"/>
		</contour>
	</outline>
</glyph>
<glyph name="R" format="2">
	<advance width="1158"/>
	<unicode hex="0052"/>
	<unicode hex="0072"/>
	<anchor x="579" y="0" name="bottom"/>
	<anchor x="579" y="1400" name="top"/>
	<outline>
		<contour>
			<point x="236" y="60" type="curve" smooth="yes"/>
			<point x="236" y="661" type="line" smooth="yes"/>
			<point x="236" y="694"/>
			<point x="209" y="721"/>
			<point x="176" y="721" type="curve" smooth="yes"/>
			<point x="143" y="721"/>
			<point x="116" y="694"/>
			<point x="116" y="661" type="curve" smooth="yes"/>
			<point x="116" y="60" type="line" smooth="yes"/>
			<point x="116" y="27"/>
			<point x="143" y="0"/>
			<point x="176" y="0" type="curve" smooth="yes"/>
			<point x="209" y="0"/>
			<point x="236" y="27"/>
		</contour>
		<contour>
			<point x="1076" y="97" type="curve" smooth="yes"/>
			<point x="619" y="700" type="line" smooth="yes"/>
			<point x="608" y="715"/>
			<point x="591" y="724"/>
			<point x="571" y="724" type="curve" smooth="yes"/>
			<point x="538" y="724"/>
			<point x="511" y="697"/>
			<point x="511" y="664" type="curve" smooth="yes"/>
			<point x="511" y="650"/>
			<point x="516" y="638"/>
			<point x="523" y="628" type="curve" smooth="yes"/>
			<point x="981" y="23" type="line" smooth="yes"/>
			<point x="992" y="9"/>
			<point x="1009" y="0"/>
			<point x="1028" y="0" type="curve" smooth="yes"/>
			<point x="1062" y="0"/>
			<point x="1088" y="27"/>
			<point x="1088" y="60" type="curve" smooth="yes"/>
			<point x="1088" y="74"/>
			<point x="1084" y="87"/>
		</contour>
		<contour>
			<point x="571" y="605" type="curve" smooth="yes"/>
			<point x="654" y="605" type="line" smooth="yes"/>
			<point x="873" y="605"/>
			<point x="1051" y="783"/>
			<point x="1051" y="1003" type="curve" smooth="yes"/>
			<point x="1051" y="1222"/>
			<point x="873" y="1400"/>
			<point x="654" y="1400" type="curve" smooth="yes"/>
			<point x="160" y="1400" type="line" smooth="yes"/>
			<point x="127" y="1400"/>
			<point x="100" y="1373"/>
			<point x="100" y="1340" type="curve" smooth="yes"/>
			<point x="100" y="1307"/>
			<point x="127" y="1280"/>
			<point x="160" y="1280" type="curve" smooth="yes"/>
			<point x="654" y="1280" type="line" smooth="yes"/>
			<point x="807" y="1280"/>
			<point x="931" y="1156"/>
			<point x="931" y="1003" type="curve" smooth="yes"/>
			<point x="931" y="849"/>
			<point x="807" y="725"/>
			<point x="654" y="725" type="curve" smooth="yes"/>
			<point x="571" y="725" type="line" smooth="yes"/>
			<point x="538" y="725"/>
			<point x="511" y="698"/>
			<point x="511" y="665" type="curve" smooth="yes"/>
			<point x="511" y="632"/>
			<point x="538" y="605"/>
		</contour>
	</outline>
</glyph>
<glyph name="S" format="2">
	<advance width="1166"/>
	<unicode hex="0053"/>
	<unicode hex="0073"/>
	<anchor x="523" y="0" name="bottom"/>
	<anchor x="583" y="1400" name="top"/>
	<outline>
		<contour>
			<point x="960" y="348" type="curve" smooth="yes"/>
			<point x="960" y="222"/>
			<point x="858" y="120"/>
			<point x="732" y="120" type="curve" smooth="yes"/>
			<point x="140" y="120" type="line" smooth="yes"/>
			<point x="107" y="120"/>
			<point x="80" y="93"/>
			<point x="80" y="60" type="curve" smooth="yes"/>
			<point x="80" y="27"/>
			<point x="107" y="0"/>
			<point x="140" y="0" type="curve" smooth="yes"/>
			<point x="732" y="0" type="line" smooth="yes"/>
			<point x="924" y="0"/>
			<point x="1080" y="156"/>
			<point x="1080" y="348" type="curve" smooth="yes"/>
			<point x="1080" y="381"/>
			<point x="1053" y="408"/>
			<point x="1020" y="408" type="curve" smooth="yes"/>
			<point x="987" y="408"/>
			<point x="960" y="381"/>
		</contour>
		<contour>
			<point x="692" y="760" type="curve" smooth="yes"/>
			<point x="475" y="760" type="line" smooth="yes"/>
			<point x="442" y="760"/>
			<point x="415" y="733"/>
			<point x="415" y="700" type="curve" smooth="yes"/>
			<point x="415" y="667"/>
			<point x="442" y="640"/>
			<point x="475" y="640" type="curve" smooth="yes"/>
			<point x="692" y="640" type="line" smooth="yes"/>
			<point x="725" y="640"/>
			<point x="752" y="667"/>
			<point x="752" y="700" type="curve" smooth="yes"/>
			<point x="752" y="733"/>
			<point x="725" y="760"/>
		</contour>
		<contour>
			<point x="206" y="1052" type="curve" smooth="yes"/>
			<point x="206" y="1178"/>
			<point x="308" y="1280"/>
			<point x="434" y="1280" type="curve" smooth="yes"/>
			<point x="1026" y="1280" type="line" smooth="yes"/>
			<point x="1059" y="1280"/>
			<point x="1086" y="1307"/>
			<point x="1086" y="1340" type="curve" smooth="yes"/>
			<point x="1086" y="1373"/>
			<point x="1059" y="1400"/>
			<point x="1026" y="1400" type="curve" smooth="yes"/>
			<point x="434" y="1400" type="line" smooth="yes"/>
			<point x="242" y="1400"/>
			<point x="86" y="1244"/>
			<point x="86" y="1052" type="curve" smooth="yes"/>
			<point x="86" y="1019"/>
			<point x="113" y="992"/>
			<point x="146" y="992" type="curve" smooth="yes"/>
			<point x="179" y="992"/>
			<point x="206" y="1019"/>
		</contour>
	</outline>
</glyph>
<glyph name="T" format="2">
	<advance width="1250"/>
	<unicode hex="0054"/>
	<unicode hex="0074"/>
	<anchor x="565" y="0" name="bottom"/>
	<anchor x="625" y="700" name="center"/>
	<anchor x="625" y="1400" name="top"/>
	<outline>
		<contour>
			<point x="565" y="1346" type="line"/>
			<point x="565" y="60" type="line" smooth="yes"/>
			<point x="565" y="27"/>
			<point x="592" y="0"/>
			<point x="625" y="0" type="curve" smooth="yes"/>
			<point x="658" y="0"/>
			<point x="685" y="27"/>
			<point x="685" y="60" type="curve" smooth="yes"/>
			<point x="685" y="1346" type="line"/>
		</contour>
		<contour>
			<point x="130" y="1280" type="curve" smooth="yes"/>
			<point x="625" y="1280" type="line" smooth="yes"/>
			<point x="658" y="1280"/>
			<point x="685" y="1307"/>
			<point x="685" y="1340" type="curve" smooth="yes"/>
			<point x="685" y="1373"/>
			<point x="658" y="1400"/>
			<point x="625" y="1400" type="curve" smooth="yes"/>
			<point x="130" y="1400" type="line" smooth="yes"/>
			<point x="97" y="1400"/>
			<point x="70" y="1373"/>
			<point x="70" y="1340" type="curve" smooth="yes"/>
			<point x="70" y="1307"/>
			<point x="97" y="1280"/>
		</contour>
		<contour>
			<point x="915" y="1280" type="curve" smooth="yes"/>
			<point x="1120" y="1280" type="line" smooth="yes"/>
			<point x="1153" y="1280"/>
			<point x="1180" y="1307"/>
			<point x="1180" y="1340" type="curve" smooth="yes"/>
			<point x="1180" y="1373"/>
			<point x="1153" y="1400"/>
			<point x="1120" y="1400" type="curve" smooth="yes"/>
			<point x="915" y="1400" type="line" smooth="yes"/>
			<point x="882" y="1400"/>
			<point x="855" y="1373"/>
			<point x="855" y="1340" type="curve" smooth="yes"/>
			<point x="855" y="1307"/>
			<point x="882" y="1280"/>
		</contour>
	</outline>
</glyph>
<glyph name="U" format="2">
	<advance width="1196"/>
	<unicode hex="0055"/>
	<unicode hex="0075"/>
	<anchor x="598" y="0" name="bottom"/>
	<anchor x="1076" y="10" name="ogonek"/>
	<anchor x="598" y="1400" name="top"/>
	<anchor x="1176" y="1400" name="topright"/>
	<outline>
		<contour>
			<point x="220" y="899" type="curve" smooth="yes"/>
			<point x="220" y="1340" type="line" smooth="yes"/>
			<point x="220" y="1373"/>
			<point x="193" y="1400"/>
			<point x="160" y="1400" type="curve" smooth="yes"/>
			<point x="127" y="1400"/>
			<point x="100" y="1373"/>
			<point x="100" y="1340" type="curve" smooth="yes"/>
			<point x="100" y="899" type="line" smooth="yes"/>
			<point x="100" y="866"/>
			<point x="127" y="839"/>
			<point x="160" y="839" type="curve" smooth="yes"/>
			<point x="193" y="839"/>
			<point x="220" y="866"/>
		</contour>
		<contour>
			<point x="976" y="1340" type="curve" smooth="yes"/>
			<point x="976" y="498" type="line" smooth="yes"/>
			<point x="976" y="289"/>
			<point x="807" y="120"/>
			<point x="599" y="120" type="curve" smooth="yes"/>
			<point x="390" y="120"/>
			<point x="221" y="289"/>
			<point x="221" y="498" type="curve" smooth="yes"/>
			<point x="221" y="531"/>
			<point x="194" y="558"/>
			<point x="161" y="558" type="curve" smooth="yes"/>
			<point x="128" y="558"/>
			<point x="101" y="531"/>
			<point x="101" y="498" type="curve" smooth="yes"/>
			<point x="101" y="223"/>
			<point x="324" y="0"/>
			<point x="599" y="0" type="curve" smooth="yes"/>
			<point x="873" y="0"/>
			<point x="1096" y="223"/>
			<point x="1096" y="498" type="curve" smooth="yes"/>
			<point x="1096" y="1340" type="line" smooth="yes"/>
			<point x="1096" y="1373"/>
			<point x="1069" y="1400"/>
			<point x="1036" y="1400" type="curve" smooth="yes"/>
			<point x="1003" y="1400"/>
			<point x="976" y="1373"/>
		</contour>
	</outline>
</glyph>
<glyph name="W" format="2">
	<advance width="1975"/>
	<unicode hex="0057"/>
	<unicode hex="0077"/>
	<anchor x="987" y="0" name="bottom"/>
	<anchor x="987" y="1400" name="top"/>
	<outline>
		<contour>
			<point x="1437" y="1" type="curve" smooth="yes"/>
			<point x="1465" y="1"/>
			<point x="1488" y="20"/>
			<point x="1495" y="45" type="curve" smooth="yes"/>
			<point x="1902" y="1320" type="line" smooth="yes"/>
			<point x="1913" y="1355"/>
			<point x="1891" y="1399"/>
			<point x="1845" y="1399" type="curve" smooth="yes"/>
			<point x="1817" y="1399"/>
			<point x="1794" y="1380"/>
			<point x="1787" y="1355" type="curve" smooth="yes"/>
			<point x="1380" y="80" type="line" smooth="yes"/>
			<point x="1369" y="45"/>
			<point x="1391" y="1"/>
		</contour>
		<contour>
			<point x="318" y="681" type="curve" smooth="yes"/>
			<point x="362" y="681"/>
			<point x="385" y="722"/>
			<point x="375" y="757" type="curve" smooth="yes"/>
			<point x="187" y="1355" type="line" smooth="yes"/>
			<point x="180" y="1380"/>
			<point x="157" y="1398"/>
			<point x="129" y="1398" type="curve" smooth="yes"/>
			<point x="85" y="1398"/>
			<point x="62" y="1357"/>
			<point x="72" y="1322" type="curve" smooth="yes"/>
			<point x="260" y="724" type="line" smooth="yes"/>
			<point x="267" y="699"/>
			<point x="290" y="681"/>
		</contour>
		<contour>
			<point x="578" y="1" type="curve" smooth="yes"/>
			<point x="606" y="1"/>
			<point x="629" y="20"/>
			<point x="636" y="44" type="curve" smooth="yes"/>
			<point x="1044" y="1321" type="line" smooth="yes"/>
			<point x="1055" y="1356"/>
			<point x="1032" y="1400"/>
			<point x="987" y="1400" type="curve" smooth="yes"/>
			<point x="959" y="1400"/>
			<point x="936" y="1381"/>
			<point x="929" y="1357" type="curve" smooth="yes"/>
			<point x="521" y="80" type="line" smooth="yes"/>
			<point x="510" y="45"/>
			<point x="533" y="1"/>
		</contour>
		<contour>
			<point x="1176" y="681" type="curve" smooth="yes"/>
			<point x="1220" y="681"/>
			<point x="1243" y="722"/>
			<point x="1233" y="757" type="curve" smooth="yes"/>
			<point x="1045" y="1355" type="line" smooth="yes"/>
			<point x="1038" y="1380"/>
			<point x="1015" y="1398"/>
			<point x="987" y="1398" type="curve" smooth="yes"/>
			<point x="943" y="1398"/>
			<point x="920" y="1357"/>
			<point x="930" y="1322" type="curve" smooth="yes"/>
			<point x="1118" y="724" type="line" smooth="yes"/>
			<point x="1125" y="699"/>
			<point x="1148" y="681"/>
		</contour>
	</outline>
</glyph>
<glyph name="X" format="2">
	<advance width="1267"/>
	<unicode hex="0058"/>
	<unicode hex="0078"/>
	<anchor x="635" y="0" name="bottom"/>
	<anchor x="635" y="1400" name="top"/>
	<outline>
		<contour>
			<point x="353" y="439" type="curve" smooth="yes"/>
			<point x="83" y="96" type="line" smooth="yes"/>
			<point x="75" y="86"/>
			<point x="70" y="73"/>
			<point x="70" y="58" type="curve" smooth="yes"/>
			<point x="70" y="25"/>
			<point x="97" y="-2"/>
			<point x="130" y="-2" type="curve" smooth="yes"/>
			<point x="149" y="-2"/>
			<point x="166" y="7"/>
			<point x="177" y="21" type="curve" smooth="yes"/>
			<point x="447" y="365" type="line" smooth="yes"/>
			<point x="455" y="375"/>
			<point x="460" y="388"/>
			<point x="460" y="402" type="curve" smooth="yes"/>
			<point x="460" y="435"/>
			<point x="433" y="462"/>
			<point x="400" y="462" type="curve" smooth="yes"/>
			<point x="381" y="462"/>
			<point x="364" y="453"/>
		</contour>
		<contour>
			<point x="85" y="1302" type="curve" smooth="yes"/>
			<point x="1090" y="23" type="line" smooth="yes"/>
			<point x="1101" y="9"/>
			<point x="1118" y="0"/>
			<point x="1137" y="0" type="curve" smooth="yes"/>
			<point x="1170" y="0"/>
			<point x="1197" y="27"/>
			<point x="1197" y="60" type="curve" smooth="yes"/>
			<point x="1197" y="75"/>
			<point x="1192" y="88"/>
			<point x="1184" y="98" type="curve" smooth="yes"/>
			<point x="179" y="1377" type="line" smooth="yes"/>
			<point x="168" y="1391"/>
			<point x="151" y="1400"/>
			<point x="132" y="1400" type="curve" smooth="yes"/>
			<point x="99" y="1400"/>
			<point x="72" y="1373"/>
			<point x="72" y="1340" type="curve" smooth="yes"/>
			<point x="72" y="1325"/>
			<point x="77" y="1312"/>
		</contour>
		<contour>
			<point x="1090" y="1377" type="curve" smooth="yes"/>
			<point x="822" y="1035" type="line" smooth="yes"/>
			<point x="814" y="1025"/>
			<point x="809" y="1012"/>
			<point x="809" y="998" type="curve" smooth="yes"/>
			<point x="809" y="965"/>
			<point x="836" y="938"/>
			<point x="869" y="938" type="curve" smooth="yes"/>
			<point x="888" y="938"/>
			<point x="905" y="947"/>
			<point x="916" y="961" type="curve" smooth="yes"/>
			<point x="1184" y="1302" type="line" smooth="yes"/>
			<point x="1192" y="1312"/>
			<point x="1197" y="1325"/>
			<point x="1197" y="1340" type="curve" smooth="yes"/>
			<point x="1197" y="1373"/>
			<point x="1170" y="1400"/>
			<point x="1137" y="1400" type="curve" smooth="yes"/>
			<point x="1118" y="1400"/>
			<point x="1101" y="1391"/>
		</contour>
	</outline>
</glyph>
<glyph name="asciicircum" format="2">
	<advance width="816"/>
	<unicode hex="005E"/>
	<outline>
		<contour>
			<point x="363" y="1380" type="curve" smooth="yes"/>
			<point x="116" y="1107" type="line" smooth="yes"/>
			<point x="106" y="1097"/>
			<point x="100" y="1083"/>
			<point x="100" y="1067" type="curve" smooth="yes"/>
			<point x="100" y="1034"/>
			<point x="127" y="1007"/>
			<point x="160" y="1007" type="curve" smooth="yes"/>
			<point x="178" y="1007"/>
			<point x="194" y="1015"/>
			<point x="205" y="1027" type="curve" smooth="yes"/>
			<point x="452" y="1300" type="line" smooth="yes"/>
			<point x="462" y="1310"/>
			<point x="468" y="1324"/>
			<point x="468" y="1340" type="curve" smooth="yes"/>
			<point x="468" y="1373"/>
			<point x="441" y="1400"/>
			<point x="408" y="1400" type="curve" smooth="yes"/>
			<point x="390" y="1400"/>
			<point x="374" y="1392"/>
		</contour>
		<contour>
			<point x="364" y="1300" type="curve" smooth="yes"/>
			<point x="611" y="1027" type="line" smooth="yes"/>
			<point x="622" y="1015"/>
			<point x="638" y="1007"/>
			<point x="656" y="1007" type="curve" smooth="yes"/>
			<point x="689" y="1007"/>
			<point x="716" y="1034"/>
			<point x="716" y="1067" type="curve" smooth="yes"/>
			<point x="716" y="1083"/>
			<point x="710" y="1097"/>
			<point x="700" y="1107" type="curve" smooth="yes"/>
			<point x="453" y="1380" type="line" smooth="yes"/>
			<point x="442" y="1392"/>
			<point x="426" y="1400"/>
			<point x="408" y="1400" type="curve" smooth="yes"/>
			<point x="375" y="1400"/>
			<point x="348" y="1373"/>
			<point x="348" y="1340" type="curve" smooth="yes"/>
			<point x="348" y="1324"/>
			<point x="354" y="1310"/>
		</contour>
	</outline>
</glyph>
<glyph name="asciitilde" format="2">
	<advance width="868"/>
	<unicode hex="007E"/>
	<outline>
		<contour>
			<point x="656" y="764" type="curve" smooth="yes"/>
			<point x="604" y="675"/>
			<point x="558" y="678"/>
			<point x="472" y="747" type="curve" smooth="yes"/>
			<point x="349" y="845"/>
			<point x="202" y="856"/>
			<point x="108" y="696" type="curve" smooth="yes"/>
			<point x="103" y="687"/>
			<point x="100" y="677"/>
			<point x="100" y="666" type="curve" smooth="yes"/>
			<point x="100" y="633"/>
			<point x="127" y="606"/>
			<point x="160" y="606" type="curve" smooth="yes"/>
			<point x="182" y="606"/>
			<point x="201" y="618"/>
			<point x="212" y="636" type="curve" smooth="yes"/>
			<point x="264" y="725"/>
			<point x="310" y="722"/>
			<point x="396" y="653" type="curve" smooth="yes"/>
			<point x="519" y="555"/>
			<point x="666" y="544"/>
			<point x="760" y="704" type="curve" smooth="yes"/>
			<point x="765" y="713"/>
			<point x="768" y="723"/>
			<point x="768" y="734" type="curve" smooth="yes"/>
			<point x="768" y="767"/>
			<point x="741" y="794"/>
			<point x="708" y="794" type="curve" smooth="yes"/>
			<point x="686" y="794"/>
			<point x="667" y="782"/>
		</contour>
	</outline>
</glyph>
<glyph name="exclamdown" format="2">
	<advance width="350"/>
	<unicode hex="00A1"/>
	<outline>
		<contour>
			<point x="175" y="1400" type="curve" smooth="yes"/>
			<point x="134" y="1400"/>
			<point x="100" y="1366"/>
			<point x="100" y="1325" type="curve" smooth="yes"/>
			<point x="100" y="1284"/>
			<point x="134" y="1250"/>
			<point x="175" y="1250" type="curve" smooth="yes"/>
			<point x="216" y="1250"/>
			<point x="250" y="1284"/>
			<point x="250" y="1325" type="curve" smooth="yes"/>
			<point x="250" y="1366"/>
			<point x="216" y="1400"/>
		</contour>
		<contour>
			<point x="115" y="987" type="curve" smooth="yes"/>
			<point x="115" y="60" type="line" smooth="yes"/>
			<point x="115" y="27"/>
			<point x="142" y="0"/>
			<point x="175" y="0" type="curve" smooth="yes"/>
			<point x="208" y="0"/>
			<point x="235" y="27"/>
			<point x="235" y="60" type="curve" smooth="yes"/>
			<point x="235" y="987" type="line" smooth="yes"/>
			<point x="235" y="1020"/>
			<point x="208" y="1047"/>
			<point x="175" y="1047" type="curve" smooth="yes"/>
			<point x="142" y="1047"/>
			<point x="115" y="1020"/>
		</contour>
	</outline>
</glyph>
<glyph name="cent" format="2">
	<advance width="922"/>
	<unicode hex="00A2"/>
	<outline>
		<contour>
			<point x="580" y="200" type="curve" smooth="yes"/>
			<point x="812" y="200" type="line" smooth="yes"/>
			<point x="845" y="200"/>
			<point x="872" y="227"/>
			<point x="872" y="260" type="curve" smooth="yes"/>
			<point x="872" y="293"/>
			<point x="845" y="320"/>
			<point x="812" y="320" type="curve" smooth="yes"/>
			<point x="580" y="320" type="line" smooth="yes"/>
			<point x="370" y="320"/>
			<point x="200" y="490"/>
			<point x="200" y="700" type="curve" smooth="yes"/>
			<point x="200" y="894"/>
			<point x="345" y="1054"/>
			<point x="533" y="1077" type="curve" smooth="yes"/>
			<point x="563" y="1081"/>
			<point x="586" y="1106"/>
			<point x="586" y="1137" type="curve" smooth="yes"/>
			<point x="586" y="1173"/>
			<point x="555" y="1201"/>
			<point x="519" y="1196" type="curve" smooth="yes"/>
			<point x="272" y="1166"/>
			<point x="80" y="955"/>
			<point x="80" y="700" type="curve" smooth="yes"/>
			<point x="80" y="424"/>
			<point x="304" y="200"/>
		</contour>
		<contour>
			<point x="600" y="-76" type="curve" smooth="yes"/>
			<point x="600" y="64" type="line" smooth="yes"/>
			<point x="600" y="97"/>
			<point x="573" y="124"/>
			<point x="540" y="124" type="curve" smooth="yes"/>
			<point x="507" y="124"/>
			<point x="480" y="97"/>
			<point x="480" y="64" type="curve" smooth="yes"/>
			<point x="480" y="-76" type="line" smooth="yes"/>
			<point x="480" y="-109"/>
			<point x="507" y="-136"/>
			<point x="540" y="-136" type="curve" smooth="yes"/>
			<point x="573" y="-136"/>
			<point x="600" y="-109"/>
		</contour>
		<contour>
			<point x="600" y="1336" type="curve" smooth="yes"/>
			<point x="600" y="1476" type="line" smooth="yes"/>
			<point x="600" y="1509"/>
			<point x="573" y="1536"/>
			<point x="540" y="1536" type="curve" smooth="yes"/>
			<point x="507" y="1536"/>
			<point x="480" y="1509"/>
			<point x="480" y="1476" type="curve" smooth="yes"/>
			<point x="480" y="1336" type="line" smooth="yes"/>
			<point x="480" y="1303"/>
			<point x="507" y="1276"/>
			<point x="540" y="1276" type="curve" smooth="yes"/>
			<point x="573" y="1276"/>
			<point x="600" y="1303"/>
		</contour>
		<contour>
			<point x="812" y="1080" type="curve" smooth="yes"/>
			<point x="845" y="1080"/>
			<point x="872" y="1107"/>
			<point x="872" y="1140" type="curve" smooth="yes"/>
			<point x="872" y="1173"/>
			<point x="845" y="1200"/>
			<point x="812" y="1200" type="curve" smooth="yes"/>
			<point x="779" y="1200"/>
			<point x="752" y="1173"/>
			<point x="752" y="1140" type="curve" smooth="yes"/>
			<point x="752" y="1107"/>
			<point x="779" y="1080"/>
		</contour>
	</outline>
</glyph>
<glyph name="section" format="2">
	<advance width="906"/>
	<unicode hex="00A7"/>
	<outline>
		<contour>
			<point x="453" y="539" type="curve" smooth="yes"/>
			<point x="365" y="539"/>
			<point x="292" y="612"/>
			<point x="292" y="700" type="curve" smooth="yes"/>
			<point x="292" y="788"/>
			<point x="365" y="861"/>
			<point x="453" y="861" type="curve" smooth="yes"/>
			<point x="541" y="861"/>
			<point x="614" y="788"/>
			<point x="614" y="700" type="curve" smooth="yes"/>
			<point x="614" y="612"/>
			<point x="541" y="539"/>
		</contour>
		<contour>
			<point x="453" y="419" type="curve" smooth="yes"/>
			<point x="607" y="419"/>
			<point x="734" y="546"/>
			<point x="734" y="700" type="curve" smooth="yes"/>
			<point x="734" y="854"/>
			<point x="607" y="981"/>
			<point x="453" y="981" type="curve" smooth="yes"/>
			<point x="299" y="981"/>
			<point x="172" y="854"/>
			<point x="172" y="700" type="curve" smooth="yes"/>
			<point x="172" y="546"/>
			<point x="299" y="419"/>
		</contour>
		<contour>
			<point x="680" y="348" type="curve" smooth="yes"/>
			<point x="680" y="222"/>
			<point x="578" y="120"/>
			<point x="452" y="120" type="curve" smooth="yes"/>
			<point x="160" y="120" type="line" smooth="yes"/>
			<point x="127" y="120"/>
			<point x="100" y="93"/>
			<point x="100" y="60" type="curve" smooth="yes"/>
			<point x="100" y="27"/>
			<point x="127" y="0"/>
			<point x="160" y="0" type="curve" smooth="yes"/>
			<point x="452" y="0" type="line" smooth="yes"/>
			<point x="644" y="0"/>
			<point x="800" y="156"/>
			<point x="800" y="348" type="curve" smooth="yes"/>
			<point x="800" y="381"/>
			<point x="773" y="408"/>
			<point x="740" y="408" type="curve" smooth="yes"/>
			<point x="707" y="408"/>
			<point x="680" y="381"/>
		</contour>
		<contour>
			<point x="226" y="1052" type="curve" smooth="yes"/>
			<point x="226" y="1178"/>
			<point x="328" y="1280"/>
			<point x="454" y="1280" type="curve" smooth="yes"/>
			<point x="746" y="1280" type="line" smooth="yes"/>
			<point x="779" y="1280"/>
			<point x="806" y="1307"/>
			<point x="806" y="1340" type="curve" smooth="yes"/>
			<point x="806" y="1373"/>
			<point x="779" y="1400"/>
			<point x="746" y="1400" type="curve" smooth="yes"/>
			<point x="454" y="1400" type="line" smooth="yes"/>
			<point x="262" y="1400"/>
			<point x="106" y="1244"/>
			<point x="106" y="1052" type="curve" smooth="yes"/>
			<point x="106" y="1019"/>
			<point x="133" y="992"/>
			<point x="166" y="992" type="curve" smooth="yes"/>
			<point x="199" y="992"/>
			<point x="226" y="1019"/>
		</contour>
	</outline>
</glyph>
<glyph name="logicalnot" format="2">
	<advance width="1007"/>
	<unicode hex="00AC"/>
	<outline>
		<contour>
			<point x="867" y="890" type="curve" smooth="yes"/>
			<point x="120" y="890" type="line" smooth="yes"/>
			<point x="87" y="890"/>
			<point x="60" y="863"/>
			<point x="60" y="830" type="curve" smooth="yes"/>
			<point x="60" y="797"/>
			<point x="87" y="770"/>
			<point x="120" y="770" type="curve" smooth="yes"/>
			<point x="867" y="770" type="line" smooth="yes"/>
			<point x="900" y="770"/>
			<point x="927" y="797"/>
			<point x="927" y="830" type="curve" smooth="yes"/>
			<point x="927" y="863"/>
			<point x="900" y="890"/>
		</contour>
		<contour>
			<point x="927" y="424" type="curve" smooth="yes"/>
			<point x="927" y="824" type="line"/>
			<point x="807" y="824" type="line"/>
			<point x="807" y="424" type="line" smooth="yes"/>
			<point x="807" y="391"/>
			<point x="834" y="364"/>
			<point x="867" y="364" type="curve" smooth="yes"/>
			<point x="900" y="364"/>
			<point x="927" y="391"/>
		</contour>
	</outline>
</glyph>
<glyph name="plusminus" format="2">
	<advance width="1007"/>
	<unicode hex="00B1"/>
	<outline>
		<contour>
			<point x="120" y="217" type="curve" smooth="yes"/>
			<point x="887" y="217" type="line" smooth="yes"/>
			<point x="920" y="217"/>
			<point x="947" y="244"/>
			<point x="947" y="277" type="curve" smooth="yes"/>
			<point x="947" y="310"/>
			<point x="920" y="337"/>
			<point x="887" y="337" type="curve" smooth="yes"/>
			<point x="120" y="337" type="line" smooth="yes"/>
			<point x="87" y="337"/>
			<point x="60" y="310"/>
			<point x="60" y="277" type="curve" smooth="yes"/>
			<point x="60" y="244"/>
			<point x="87" y="217"/>
		</contour>
		<contour>
			<point x="120" y="740" type="curve" smooth="yes"/>
			<point x="275" y="740" type="line" smooth="yes"/>
			<point x="308" y="740"/>
			<point x="335" y="767"/>
			<point x="335" y="800" type="curve" smooth="yes"/>
			<point x="335" y="833"/>
			<point x="308" y="860"/>
			<point x="275" y="860" type="curve" smooth="yes"/>
			<point x="120" y="860" type="line" smooth="yes"/>
			<point x="87" y="860"/>
			<point x="60" y="833"/>
			<point x="60" y="800" type="curve" smooth="yes"/>
			<point x="60" y="767"/>
			<point x="87" y="740"/>
		</contour>
		<contour>
			<point x="564" y="477" type="curve" smooth="yes"/>
			<point x="564" y="1124" type="line" smooth="yes"/>
			<point x="564" y="1157"/>
			<point x="537" y="1184"/>
			<point x="504" y="1184" type="curve" smooth="yes"/>
			<point x="471" y="1184"/>
			<point x="444" y="1157"/>
			<point x="444" y="1124" type="curve" smooth="yes"/>
			<point x="444" y="477" type="line" smooth="yes"/>
			<point x="444" y="444"/>
			<point x="471" y="417"/>
			<point x="504" y="417" type="curve" smooth="yes"/>
			<point x="537" y="417"/>
			<point x="564" y="444"/>
		</contour>
		<contour>
			<point x="733" y="740" type="curve" smooth="yes"/>
			<point x="888" y="740" type="line" smooth="yes"/>
			<point x="921" y="740"/>
			<point x="948" y="767"/>
			<point x="948" y="800" type="curve" smooth="yes"/>
			<point x="948" y="833"/>
			<point x="921" y="860"/>
			<point x="888" y="860" type="curve" smooth="yes"/>
			<point x="733" y="860" type="line" smooth="yes"/>
			<point x="700" y="860"/>
			<point x="673" y="833"/>
			<point x="673" y="800" type="curve" smooth="yes"/>
			<point x="673" y="767"/>
			<point x="700" y="740"/>
		</contour>
	</outline>
</glyph>
<glyph name="uni00B2" format="2">
	<advance width="540"/>
	<unicode hex="00B2"/>
	<outline>
		<contour>
			<point x="101" y="624" type="curve" smooth="yes"/>
			<point x="433" y="624" type="line" smooth="yes"/>
			<point x="461" y="624"/>
			<point x="483" y="646"/>
			<point x="483" y="674" type="curve" smooth="yes"/>
			<point x="483" y="702"/>
			<point x="461" y="724"/>
			<point x="433" y="724" type="curve" smooth="yes"/>
			<point x="101" y="724" type="line" smooth="yes"/>
			<point x="73" y="724"/>
			<point x="51" y="702"/>
			<point x="51" y="674" type="curve" smooth="yes"/>
			<point x="51" y="646"/>
			<point x="73" y="624"/>
		</contour>
		<contour>
			<point x="141" y="645" type="curve" smooth="yes"/>
			<point x="301" y="851" type="line" smooth="yes"/>
			<point x="308" y="860"/>
			<point x="312" y="870"/>
			<point x="312" y="882" type="curve" smooth="yes"/>
			<point x="312" y="910"/>
			<point x="290" y="932"/>
			<point x="262" y="932" type="curve" smooth="yes"/>
			<point x="246" y="932"/>
			<point x="232" y="924"/>
			<point x="223" y="913" type="curve" smooth="yes"/>
			<point x="63" y="708" type="line" smooth="yes"/>
			<point x="56" y="699"/>
			<point x="52" y="688"/>
			<point x="52" y="676" type="curve" smooth="yes"/>
			<point x="52" y="649"/>
			<point x="74" y="626"/>
			<point x="102" y="626" type="curve" smooth="yes"/>
			<point x="118" y="626"/>
			<point x="132" y="634"/>
		</contour>
		<contour>
			<point x="151" y="1185" type="curve" smooth="yes"/>
			<point x="151" y="1248"/>
			<point x="203" y="1300"/>
			<point x="266" y="1300" type="curve" smooth="yes"/>
			<point x="329" y="1300"/>
			<point x="381" y="1248"/>
			<point x="381" y="1185" type="curve" smooth="yes"/>
			<point x="381" y="1157"/>
			<point x="403" y="1135"/>
			<point x="431" y="1135" type="curve" smooth="yes"/>
			<point x="459" y="1135"/>
			<point x="481" y="1157"/>
			<point x="481" y="1185" type="curve" smooth="yes"/>
			<point x="481" y="1303"/>
			<point x="384" y="1400"/>
			<point x="266" y="1400" type="curve" smooth="yes"/>
			<point x="148" y="1400"/>
			<point x="51" y="1303"/>
			<point x="51" y="1185" type="curve" smooth="yes"/>
			<point x="51" y="1157"/>
			<point x="73" y="1135"/>
			<point x="101" y="1135" type="curve" smooth="yes"/>
			<point x="129" y="1135"/>
			<point x="151" y="1157"/>
		</contour>
	</outline>
</glyph>
<glyph name="uni00B5" format="2">
	<advance width="1195"/>
	<unicode hex="00B5"/>
	<unicode hex="03BC"/>
	<outline>
		<contour>
			<point x="220" y="-340" type="curve" smooth="yes"/>
			<point x="220" y="100" type="line" smooth="yes"/>
			<point x="220" y="133"/>
			<point x="193" y="160"/>
			<point x="160" y="160" type="curve" smooth="yes"/>
			<point x="127" y="160"/>
			<point x="100" y="133"/>
			<point x="100" y="100" type="curve" smooth="yes"/>
			<point x="100" y="-340" type="line" smooth="yes"/>
			<point x="100" y="-373"/>
			<point x="127" y="-400"/>
			<point x="160" y="-400" type="curve" smooth="yes"/>
			<point x="193" y="-400"/>
			<point x="220" y="-373"/>
		</contour>
		<contour>
			<point x="220" y="500" type="curve" smooth="yes"/>
			<point x="220" y="940" type="line" smooth="yes"/>
			<point x="220" y="973"/>
			<point x="193" y="1000"/>
			<point x="160" y="1000" type="curve" smooth="yes"/>
			<point x="127" y="1000"/>
			<point x="100" y="973"/>
			<point x="100" y="940" type="curve" smooth="yes"/>
			<point x="100" y="500" type="line" smooth="yes"/>
			<point x="100" y="467"/>
			<point x="127" y="440"/>
			<point x="160" y="440" type="curve" smooth="yes"/>
			<point x="193" y="440"/>
			<point x="220" y="467"/>
		</contour>
		<contour>
			<point x="598" y="4" type="curve" smooth="yes"/>
			<point x="872" y="4"/>
			<point x="1095" y="227"/>
			<point x="1095" y="502" type="curve" smooth="yes"/>
			<point x="1095" y="942" type="line" smooth="yes"/>
			<point x="1095" y="975"/>
			<point x="1068" y="1002"/>
			<point x="1035" y="1002" type="curve" smooth="yes"/>
			<point x="1002" y="1002"/>
			<point x="975" y="975"/>
			<point x="975" y="942" type="curve" smooth="yes"/>
			<point x="975" y="502" type="line" smooth="yes"/>
			<point x="975" y="293"/>
			<point x="806" y="124"/>
			<point x="598" y="124" type="curve" smooth="yes"/>
			<point x="565" y="124"/>
			<point x="538" y="97"/>
			<point x="538" y="64" type="curve" smooth="yes"/>
			<point x="538" y="31"/>
			<point x="565" y="4"/>
		</contour>
	</outline>
</glyph>
<glyph name="uni00B9" format="2">
	<advance width="540"/>
	<unicode hex="00B9"/>
	<outline>
		<contour>
			<point x="354" y="674" type="curve" smooth="yes"/>
			<point x="354" y="902" type="line" smooth="yes"/>
			<point x="354" y="930"/>
			<point x="332" y="952"/>
			<point x="304" y="952" type="curve" smooth="yes"/>
			<point x="276" y="952"/>
			<point x="254" y="930"/>
			<point x="254" y="902" type="curve" smooth="yes"/>
			<point x="254" y="674" type="line" smooth="yes"/>
			<point x="254" y="646"/>
			<point x="276" y="624"/>
			<point x="304" y="624" type="curve" smooth="yes"/>
			<point x="332" y="624"/>
			<point x="354" y="646"/>
		</contour>
		<contour>
			<point x="276" y="1391" type="curve" smooth="yes"/>
			<point x="128" y="1289" type="line" smooth="yes"/>
			<point x="115" y="1280"/>
			<point x="106" y="1265"/>
			<point x="106" y="1248" type="curve" smooth="yes"/>
			<point x="106" y="1220"/>
			<point x="128" y="1198"/>
			<point x="156" y="1198" type="curve" smooth="yes"/>
			<point x="167" y="1198"/>
			<point x="176" y="1201"/>
			<point x="184" y="1207" type="curve" smooth="yes"/>
			<point x="332" y="1309" type="line" smooth="yes"/>
			<point x="345" y="1318"/>
			<point x="354" y="1333"/>
			<point x="354" y="1350" type="curve" smooth="yes"/>
			<point x="354" y="1378"/>
			<point x="332" y="1400"/>
			<point x="304" y="1400" type="curve" smooth="yes"/>
			<point x="293" y="1400"/>
			<point x="284" y="1397"/>
		</contour>
		<contour>
			<point x="354" y="1102" type="curve" smooth="yes"/>
			<point x="354" y="1350" type="line" smooth="yes"/>
			<point x="354" y="1378"/>
			<point x="332" y="1400"/>
			<point x="304" y="1400" type="curve" smooth="yes"/>
			<point x="276" y="1400"/>
			<point x="254" y="1378"/>
			<point x="254" y="1350" type="curve" smooth="yes"/>
			<point x="254" y="1102" type="line" smooth="yes"/>
			<point x="254" y="1074"/>
			<point x="276" y="1052"/>
			<point x="304" y="1052" type="curve" smooth="yes"/>
			<point x="332" y="1052"/>
			<point x="354" y="1074"/>
		</contour>
	</outline>
</glyph>
<glyph name="OE" format="2">
	<advance width="1819"/>
	<unicode hex="0152"/>
	<unicode hex="0153"/>
	<outline>
		<contour>
			<point x="1679" y="120" type="curve" smooth="yes"/>
			<point x="1036" y="120" type="line" smooth="yes"/>
			<point x="1003" y="120"/>
			<point x="976" y="93"/>
			<point x="976" y="60" type="curve" smooth="yes"/>
			<point x="976" y="27"/>
			<point x="1003" y="0"/>
			<point x="1036" y="0" type="curve" smooth="yes"/>
			<point x="1679" y="0" type="line" smooth="yes"/>
			<point x="1712" y="0"/>
			<point x="1739" y="27"/>
			<point x="1739" y="60" type="curve" smooth="yes"/>
			<point x="1739" y="93"/>
			<point x="1712" y="120"/>
		</contour>
		<contour>
			<point x="1096" y="60" type="line"/>
			<point x="1096" y="706" type="line" smooth="yes"/>
			<point x="1096" y="739"/>
			<point x="1069" y="766"/>
			<point x="1036" y="766" type="curve" smooth="yes"/>
			<point x="1003" y="766"/>
			<point x="976" y="739"/>
			<point x="976" y="706" type="curve" smooth="yes"/>
			<point x="976" y="60" type="line"/>
		</contour>
		<contour>
			<point x="780" y="120" type="curve" smooth="yes"/>
			<point x="459" y="120"/>
			<point x="200" y="379"/>
			<point x="200" y="700" type="curve" smooth="yes"/>
			<point x="200" y="1021"/>
			<point x="459" y="1280"/>
			<point x="780" y="1280" type="curve" smooth="yes"/>
			<point x="1679" y="1280" type="line" smooth="yes"/>
			<point x="1712" y="1280"/>
			<point x="1739" y="1307"/>
			<point x="1739" y="1340" type="curve" smooth="yes"/>
			<point x="1739" y="1373"/>
			<point x="1712" y="1400"/>
			<point x="1679" y="1400" type="curve" smooth="yes"/>
			<point x="780" y="1400" type="line" smooth="yes"/>
			<point x="393" y="1400"/>
			<point x="80" y="1087"/>
			<point x="80" y="700" type="curve" smooth="yes"/>
			<point x="80" y="313"/>
			<point x="393" y="0"/>
			<point x="780" y="0" type="curve" smooth="yes"/>
			<point x="813" y="0"/>
			<point x="840" y="27"/>
			<point x="840" y="60" type="curve" smooth="yes"/>
			<point x="840" y="93"/>
			<point x="813" y="120"/>
		</contour>
		<contour>
			<point x="1363" y="640" type="curve" smooth="yes"/>
			<point x="1678" y="640" type="line" smooth="yes"/>
			<point x="1711" y="640"/>
			<point x="1738" y="667"/>
			<point x="1738" y="700" type="curve" smooth="yes"/>
			<point x="1738" y="733"/>
			<point x="1711" y="760"/>
			<point x="1678" y="760" type="curve" smooth="yes"/>
			<point x="1363" y="760" type="line" smooth="yes"/>
			<point x="1330" y="760"/>
			<point x="1303" y="733"/>
			<point x="1303" y="700" type="curve" smooth="yes"/>
			<point x="1303" y="667"/>
			<point x="1330" y="640"/>
		</contour>
	</outline>
</glyph>
<glyph name="uni0302" format="2">
	<advance width="0"/>
	<unicode hex="0302"/>
	<anchor x="0" y="1400" name="_top"/>
	<anchor x="0" y="1849" name="top"/>
	<outline>
		<contour>
			<point x="-35" y="1835" type="curve" smooth="yes"/>
			<point x="-237" y="1644" type="line" smooth="yes"/>
			<point x="-246" y="1635"/>
			<point x="-252" y="1622"/>
			<point x="-252" y="1608" type="curve" smooth="yes"/>
			<point x="-252" y="1580"/>
			<point x="-230" y="1558"/>
			<point x="-202" y="1558" type="curve" smooth="yes"/>
			<point x="-189" y="1558"/>
			<point x="-177" y="1563"/>
			<point x="-168" y="1572" type="curve" smooth="yes"/>
			<point x="34" y="1763" type="line" smooth="yes"/>
			<point x="43" y="1772"/>
			<point x="49" y="1785"/>
			<point x="49" y="1799" type="curve" smooth="yes"/>
			<point x="49" y="1827"/>
			<point x="27" y="1849"/>
			<point x="-1" y="1849" type="curve" smooth="yes"/>
			<point x="-14" y="1849"/>
			<point x="-26" y="1844"/>
		</contour>
		<contour>
			<point x="-32" y="1761" type="line"/>
			<point x="168" y="1572" type="line" smooth="yes"/>
			<point x="177" y="1563"/>
			<point x="189" y="1558"/>
			<point x="202" y="1558" type="curve" smooth="yes"/>
			<point x="230" y="1558"/>
			<point x="252" y="1580"/>
			<point x="252" y="1608" type="curve" smooth="yes"/>
			<point x="252" y="1622"/>
			<point x="246" y="1635"/>
			<point x="237" y="1644" type="curve" smooth="yes"/>
			<point x="36" y="1833" type="line"/>
		</contour>
	</outline>
</glyph>
<glyph name="uni0304" format="2">
	<advance width="0"/>
	<unicode hex="0304"/>
	<anchor x="0" y="1400" name="_top"/>
	<anchor x="0" y="1722" name="top"/>
	<outline>
		<contour>
			<point x="-223" y="1622" type="curve" smooth="yes"/>
			<point x="223" y="1622" type="line" smooth="yes"/>
			<point x="251" y="1622"/>
			<point x="273" y="1644"/>
			<point x="273" y="1672" type="curve" smooth="yes"/>
			<point x="273" y="1700"/>
			<point x="251" y="1722"/>
			<point x="223" y="1722" type="curve" smooth="yes"/>
			<point x="-223" y="1722" type="line" smooth="yes"/>
			<point x="-251" y="1722"/>
			<point x="-273" y="1700"/>
			<point x="-273" y="1672" type="curve" smooth="yes"/>
			<point x="-273" y="1644"/>
			<point x="-251" y="1622"/>
		</contour>
	</outline>
</glyph>
<glyph name="uni1E9E" format="2">
	<advance width="1170"/>
	<unicode hex="1E9E"/>
	<unicode hex="00DF"/>
	<outline>
		<contour>
			<point x="220" y="54" type="curve" smooth="yes"/>
			<point x="220" y="1336" type="line"/>
			<point x="100" y="1336" type="line"/>
			<point x="100" y="54" type="line" smooth="yes"/>
			<point x="100" y="21"/>
			<point x="127" y="-6"/>
			<point x="160" y="-6" type="curve" smooth="yes"/>
			<point x="193" y="-6"/>
			<point x="220" y="21"/>
		</contour>
		<contour>
			<point x="564" y="640" type="curve" smooth="yes"/>
			<point x="740" y="640" type="line" smooth="yes"/>
			<point x="892" y="640"/>
			<point x="1000" y="532"/>
			<point x="1000" y="380" type="curve" smooth="yes"/>
			<point x="1000" y="228"/>
			<point x="892" y="120"/>
			<point x="740" y="120" type="curve" smooth="yes"/>
			<point x="434" y="120" type="line" smooth="yes"/>
			<point x="401" y="120"/>
			<point x="374" y="93"/>
			<point x="374" y="60" type="curve" smooth="yes"/>
			<point x="374" y="27"/>
			<point x="401" y="0"/>
			<point x="434" y="0" type="curve" smooth="yes"/>
			<point x="740" y="0" type="line" smooth="yes"/>
			<point x="950" y="0"/>
			<point x="1120" y="170"/>
			<point x="1120" y="380" type="curve" smooth="yes"/>
			<point x="1120" y="590"/>
			<point x="950" y="760"/>
			<point x="740" y="760" type="curve" smooth="yes"/>
			<point x="564" y="760" type="line" smooth="yes"/>
			<point x="531" y="760"/>
			<point x="504" y="733"/>
			<point x="504" y="700" type="curve" smooth="yes"/>
			<point x="504" y="667"/>
			<point x="531" y="640"/>
		</contour>
		<contour>
			<point x="946" y="1400" type="curve" smooth="yes"/>
			<point x="160" y="1400" type="line" smooth="yes"/>
			<point x="127" y="1400"/>
			<point x="100" y="1373"/>
			<point x="100" y="1340" type="curve" smooth="yes"/>
			<point x="100" y="1307"/>
			<point x="127" y="1280"/>
			<point x="160" y="1280" type="curve" smooth="yes"/>
			<point x="946" y="1280" type="line" smooth="yes"/>
			<point x="979" y="1280"/>
			<point x="1006" y="1307"/>
			<point x="1006" y="1340" type="curve" smooth="yes"/>
			<point x="1006" y="1373"/>
			<point x="979" y="1400"/>
		</contour>
		<contour>
			<point x="892" y="1366" type="curve" smooth="yes"/>
			<point x="693" y="1078" type="line" smooth="yes"/>
			<point x="686" y="1068"/>
			<point x="682" y="1057"/>
			<point x="682" y="1044" type="curve" smooth="yes"/>
			<point x="682" y="1011"/>
			<point x="709" y="984"/>
			<point x="742" y="984" type="curve" smooth="yes"/>
			<point x="762" y="984"/>
			<point x="780" y="994"/>
			<point x="791" y="1010" type="curve" smooth="yes"/>
			<point x="990" y="1297" type="line" smooth="yes"/>
			<point x="997" y="1307"/>
			<point x="1001" y="1319"/>
			<point x="1001" y="1332" type="curve" smooth="yes"/>
			<point x="1001" y="1365"/>
			<point x="974" y="1392"/>
			<point x="941" y="1392" type="curve" smooth="yes"/>
			<point x="921" y="1392"/>
			<point x="903" y="1382"/>
		</contour>
	</outline>
</glyph>
<glyph name="emdash" format="2">
	<advance width="1532"/>
	<unicode hex="2014"/>
	<outline>
		<contour>
			<point x="1372" y="760" type="curve" smooth="yes"/>
			<point x="160" y="760" type="line" smooth="yes"/>
			<point x="127" y="760"/>
			<point x="100" y="733"/>
			<point x="100" y="700" type="curve" smooth="yes"/>
			<point x="100" y="667"/>
			<point x="127" y="640"/>
			<point x="160" y="640" type="curve" smooth="yes"/>
			<point x="1372" y="640" type="line" smooth="yes"/>
			<point x="1405" y="640"/>
			<point x="1432" y="667"/>
			<point x="1432" y="700" type="curve" smooth="yes"/>
			<point x="1432" y="733"/>
			<point x="1405" y="760"/>
		</contour>
	</outline>
</glyph>
<glyph name="dagger" format="2">
	<advance width="848"/>
	<unicode hex="2020"/>
	<outline>
		<contour>
			<point x="160" y="1066" type="curve" smooth="yes"/>
			<point x="245" y="1066" type="line" smooth="yes"/>
			<point x="278" y="1066"/>
			<point x="305" y="1093"/>
			<point x="305" y="1126" type="curve" smooth="yes"/>
			<point x="305" y="1159"/>
			<point x="278" y="1186"/>
			<point x="245" y="1186" type="curve" smooth="yes"/>
			<point x="160" y="1186" type="line" smooth="yes"/>
			<point x="127" y="1186"/>
			<point x="100" y="1159"/>
			<point x="100" y="1126" type="curve" smooth="yes"/>
			<point x="100" y="1093"/>
			<point x="127" y="1066"/>
		</contour>
		<contour>
			<point x="484" y="593" type="curve" smooth="yes"/>
			<point x="484" y="1340" type="line" smooth="yes"/>
			<point x="484" y="1373"/>
			<point x="457" y="1400"/>
			<point x="424" y="1400" type="curve" smooth="yes"/>
			<point x="391" y="1400"/>
			<point x="364" y="1373"/>
			<point x="364" y="1340" type="curve" smooth="yes"/>
			<point x="364" y="593" type="line" smooth="yes"/>
			<point x="364" y="560"/>
			<point x="391" y="533"/>
			<point x="424" y="533" type="curve" smooth="yes"/>
			<point x="457" y="533"/>
			<point x="484" y="560"/>
		</contour>
		<contour>
			<point x="603" y="1066" type="curve" smooth="yes"/>
			<point x="688" y="1066" type="line" smooth="yes"/>
			<point x="721" y="1066"/>
			<point x="748" y="1093"/>
			<point x="748" y="1126" type="curve" smooth="yes"/>
			<point x="748" y="1159"/>
			<point x="721" y="1186"/>
			<point x="688" y="1186" type="curve" smooth="yes"/>
			<point x="603" y="1186" type="line" smooth="yes"/>
			<point x="570" y="1186"/>
			<point x="543" y="1159"/>
			<point x="543" y="1126" type="curve" smooth="yes"/>
			<point x="543" y="1093"/>
			<point x="570" y="1066"/>
		</contour>
	</outline>
</glyph>
<glyph name="uni2070" format="2">
	<advance width="540"/>
	<unicode hex="2070"/>
	<outline>
		<contour>
			<point x="384" y="903" type="curve" smooth="yes"/>
			<point x="384" y="838" type="line" smooth="yes"/>
			<point x="384" y="775"/>
			<point x="333" y="724"/>
			<point x="270" y="724" type="curve" smooth="yes"/>
			<point x="207" y="724"/>
			<point x="156" y="775"/>
			<point x="156" y="838" type="curve" smooth="yes"/>
			<point x="156" y="866"/>
			<point x="134" y="888"/>
			<point x="106" y="888" type="curve" smooth="yes"/>
			<point x="78" y="888"/>
			<point x="56" y="866"/>
			<point x="56" y="838" type="curve" smooth="yes"/>
			<point x="56" y="720"/>
			<point x="152" y="624"/>
			<point x="270" y="624" type="curve" smooth="yes"/>
			<point x="388" y="624"/>
			<point x="484" y="720"/>
			<point x="484" y="838" type="curve" smooth="yes"/>
			<point x="484" y="903" type="line" smooth="yes"/>
			<point x="484" y="931"/>
			<point x="462" y="953"/>
			<point x="434" y="953" type="curve" smooth="yes"/>
			<point x="406" y="953"/>
			<point x="384" y="931"/>
		</contour>
		<contour>
			<point x="317" y="1104" type="curve" smooth="yes"/>
			<point x="168" y="1005" type="line" smooth="yes"/>
			<point x="155" y="996"/>
			<point x="146" y="980"/>
			<point x="146" y="963" type="curve" smooth="yes"/>
			<point x="146" y="935"/>
			<point x="168" y="913"/>
			<point x="196" y="913" type="curve" smooth="yes"/>
			<point x="206" y="913"/>
			<point x="216" y="916"/>
			<point x="224" y="921" type="curve" smooth="yes"/>
			<point x="373" y="1020" type="line" smooth="yes"/>
			<point x="386" y="1029"/>
			<point x="395" y="1045"/>
			<point x="395" y="1062" type="curve" smooth="yes"/>
			<point x="395" y="1090"/>
			<point x="373" y="1112"/>
			<point x="345" y="1112" type="curve" smooth="yes"/>
			<point x="335" y="1112"/>
			<point x="325" y="1109"/>
		</contour>
		<contour>
			<point x="156" y="1122" type="curve" smooth="yes"/>
			<point x="156" y="1186" type="line" smooth="yes"/>
			<point x="156" y="1249"/>
			<point x="207" y="1300"/>
			<point x="270" y="1300" type="curve" smooth="yes"/>
			<point x="333" y="1300"/>
			<point x="384" y="1249"/>
			<point x="384" y="1186" type="curve" smooth="yes"/>
			<point x="384" y="1158"/>
			<point x="406" y="1136"/>
			<point x="434" y="1136" type="curve" smooth="yes"/>
			<point x="462" y="1136"/>
			<point x="484" y="1158"/>
			<point x="484" y="1186" type="curve" smooth="yes"/>
			<point x="484" y="1304"/>
			<point x="388" y="1400"/>
			<point x="270" y="1400" type="curve" smooth="yes"/>
			<point x="152" y="1400"/>
			<point x="56" y="1304"/>
			<point x="56" y="1186" type="curve" smooth="yes"/>
			<point x="56" y="1122" type="line" smooth="yes"/>
			<point x="56" y="1094"/>
			<point x="78" y="1072"/>
			<point x="106" y="1072" type="curve" smooth="yes"/>
			<point x="134" y="1072"/>
			<point x="156" y="1094"/>
		</contour>
	</outline>
</glyph>
<glyph name="uni2074" format="2">
	<advance width="540"/>
	<unicode hex="2074"/>
	<outline>
		<contour>
			<point x="268" y="879" type="curve" smooth="yes"/>
			<point x="107" y="879" type="line"/>
			<point x="107" y="779" type="line"/>
			<point x="268" y="779" type="line" smooth="yes"/>
			<point x="296" y="779"/>
			<point x="318" y="801"/>
			<point x="318" y="829" type="curve" smooth="yes"/>
			<point x="318" y="857"/>
			<point x="296" y="879"/>
		</contour>
		<contour>
			<point x="368" y="1069" type="curve" smooth="yes"/>
			<point x="368" y="674" type="line" smooth="yes"/>
			<point x="368" y="646"/>
			<point x="390" y="624"/>
			<point x="418" y="624" type="curve" smooth="yes"/>
			<point x="446" y="624"/>
			<point x="468" y="646"/>
			<point x="468" y="674" type="curve" smooth="yes"/>
			<point x="468" y="1069" type="line" smooth="yes"/>
			<point x="468" y="1097"/>
			<point x="446" y="1119"/>
			<point x="418" y="1119" type="curve" smooth="yes"/>
			<point x="390" y="1119"/>
			<point x="368" y="1097"/>
		</contour>
		<contour>
			<point x="149" y="809" type="curve" smooth="yes"/>
			<point x="373" y="1328" type="line" smooth="yes"/>
			<point x="376" y="1334"/>
			<point x="377" y="1341"/>
			<point x="377" y="1349" type="curve" smooth="yes"/>
			<point x="377" y="1376"/>
			<point x="355" y="1399"/>
			<point x="327" y="1399" type="curve" smooth="yes"/>
			<point x="307" y="1399"/>
			<point x="290" y="1387"/>
			<point x="282" y="1370" type="curve" smooth="yes"/>
			<point x="57" y="849" type="line" smooth="yes"/>
			<point x="54" y="843"/>
			<point x="53" y="836"/>
			<point x="53" y="829" type="curve" smooth="yes"/>
			<point x="53" y="801"/>
			<point x="75" y="779"/>
			<point x="103" y="779" type="curve" smooth="yes"/>
			<point x="124" y="779"/>
			<point x="141" y="791"/>
		</contour>
	</outline>
</glyph>
<glyph name="uni2079" format="2">
	<advance width="540"/>
	<unicode hex="2079"/>
	<outline>
		<contour>
			<point x="273" y="1070" type="curve" smooth="yes"/>
			<point x="209" y="1070"/>
			<point x="158" y="1121"/>
			<point x="158" y="1185" type="curve" smooth="yes"/>
			<point x="158" y="1248"/>
			<point x="209" y="1300"/>
			<point x="273" y="1300" type="curve" smooth="yes"/>
			<point x="336" y="1300"/>
			<point x="388" y="1248"/>
			<point x="388" y="1185" type="curve" smooth="yes"/>
			<point x="388" y="1121"/>
			<point x="336" y="1070"/>
		</contour>
		<contour>
			<point x="273" y="970" type="curve" smooth="yes"/>
			<point x="391" y="970"/>
			<point x="488" y="1066"/>
			<point x="488" y="1185" type="curve" smooth="yes"/>
			<point x="488" y="1303"/>
			<point x="391" y="1400"/>
			<point x="273" y="1400" type="curve" smooth="yes"/>
			<point x="154" y="1400"/>
			<point x="58" y="1303"/>
			<point x="58" y="1185" type="curve" smooth="yes"/>
			<point x="58" y="1066"/>
			<point x="154" y="970"/>
		</contour>
		<contour>
			<point x="258" y="649" type="curve" smooth="yes"/>
			<point x="362" y="848" type="line" smooth="yes"/>
			<point x="366" y="855"/>
			<point x="368" y="863"/>
			<point x="368" y="871" type="curve" smooth="yes"/>
			<point x="368" y="899"/>
			<point x="346" y="921"/>
			<point x="318" y="921" type="curve" smooth="yes"/>
			<point x="299" y="921"/>
			<point x="282" y="910"/>
			<point x="274" y="894" type="curve" smooth="yes"/>
			<point x="170" y="697" type="line" smooth="yes"/>
			<point x="166" y="690"/>
			<point x="164" y="682"/>
			<point x="164" y="673" type="curve" smooth="yes"/>
			<point x="164" y="645"/>
			<point x="186" y="623"/>
			<point x="214" y="623" type="curve" smooth="yes"/>
			<point x="233" y="623"/>
			<point x="249" y="633"/>
		</contour>
	</outline>
</glyph>
<glyph name="partialdiff" format="2">
	<advance width="1026"/>
	<unicode hex="2202"/>
	<outline>
		<contour>
			<point x="513" y="120" type="curve" smooth="yes"/>
			<point x="340" y="120"/>
			<point x="200" y="260"/>
			<point x="200" y="433" type="curve" smooth="yes"/>
			<point x="200" y="607"/>
			<point x="340" y="747"/>
			<point x="513" y="747" type="curve" smooth="yes"/>
			<point x="686" y="747"/>
			<point x="826" y="607"/>
			<point x="826" y="433" type="curve" smooth="yes"/>
			<point x="826" y="260"/>
			<point x="686" y="120"/>
		</contour>
		<contour>
			<point x="513" y="0" type="curve" smooth="yes"/>
			<point x="752" y="0"/>
			<point x="946" y="194"/>
			<point x="946" y="433" type="curve" smooth="yes"/>
			<point x="946" y="673"/>
			<point x="752" y="867"/>
			<point x="513" y="867" type="curve" smooth="yes"/>
			<point x="274" y="867"/>
			<point x="80" y="673"/>
			<point x="80" y="433" type="curve" smooth="yes"/>
			<point x="80" y="194"/>
			<point x="274" y="0"/>
		</contour>
		<contour>
			<point x="706" y="1145" type="curve" smooth="yes"/>
			<point x="566" y="1372" type="line" smooth="yes"/>
			<point x="555" y="1389"/>
			<point x="537" y="1400"/>
			<point x="515" y="1400" type="curve" smooth="yes"/>
			<point x="482" y="1400"/>
			<point x="455" y="1373"/>
			<point x="455" y="1340" type="curve" smooth="yes"/>
			<point x="455" y="1328"/>
			<point x="458" y="1318"/>
			<point x="464" y="1308" type="curve" smooth="yes"/>
			<point x="605" y="1081" type="line" smooth="yes"/>
			<point x="616" y="1064"/>
			<point x="634" y="1053"/>
			<point x="656" y="1053" type="curve" smooth="yes"/>
			<point x="689" y="1053"/>
			<point x="716" y="1080"/>
			<point x="716" y="1113" type="curve" smooth="yes"/>
			<point x="716" y="1125"/>
			<point x="712" y="1136"/>
		</contour>
	</outline>
</glyph>
<glyph name="product" format="2">
	<advance width="1276"/>
	<unicode hex="220F"/>
	<outline>
		<contour>
			<point x="220" y="60" type="curve" smooth="yes"/>
			<point x="220" y="991" type="line" smooth="yes"/>
			<point x="220" y="1024"/>
			<point x="193" y="1051"/>
			<point x="160" y="1051" type="curve" smooth="yes"/>
			<point x="127" y="1051"/>
			<point x="100" y="1024"/>
			<point x="100" y="991" type="curve" smooth="yes"/>
			<point x="100" y="60" type="line" smooth="yes"/>
			<point x="100" y="27"/>
			<point x="127" y="0"/>
			<point x="160" y="0" type="curve" smooth="yes"/>
			<point x="193" y="0"/>
			<point x="220" y="27"/>
		</contour>
		<contour>
			<point x="1056" y="1340" type="curve" smooth="yes"/>
			<point x="1056" y="60" type="line" smooth="yes"/>
			<point x="1056" y="27"/>
			<point x="1083" y="0"/>
			<point x="1116" y="0" type="curve" smooth="yes"/>
			<point x="1149" y="0"/>
			<point x="1176" y="27"/>
			<point x="1176" y="60" type="curve" smooth="yes"/>
			<point x="1176" y="1340" type="line" smooth="yes"/>
			<point x="1176" y="1373"/>
			<point x="1149" y="1400"/>
			<point x="1116" y="1400" type="curve" smooth="yes"/>
			<point x="1083" y="1400"/>
			<point x="1056" y="1373"/>
		</contour>
		<contour>
			<point x="1116" y="1400" type="line"/>
			<point x="160" y="1400" type="line" smooth="yes"/>
			<point x="127" y="1400"/>
			<point x="100" y="1373"/>
			<point x="100" y="1340" type="curve" smooth="yes"/>
			<point x="100" y="1307"/>
			<point x="127" y="1280"/>
			<point x="160" y="1280" type="curve" smooth="yes"/>
			<point x="1116" y="1280" type="line"/>
		</contour>
	</outline>
</glyph>
<glyph name="minus" format="2">
	<advance width="1007"/>
	<unicode hex="2212"/>
	<outline>
		<contour>
			<point x="120" y="641" type="curve" smooth="yes"/>
			<point x="887" y="641" type="line" smooth="yes"/>
			<point x="920" y="641"/>
			<point x="947" y="668"/>
			<point x="947" y="701" type="curve" smooth="yes"/>
			<point x="947" y="734"/>
			<point x="920" y="761"/>
			<point x="887" y="761" type="curve" smooth="yes"/>
			<point x="120" y="761" type="line" smooth="yes"/>
			<point x="87" y="761"/>
			<point x="60" y="734"/>
			<point x="60" y="701" type="curve" smooth="yes"/>
			<point x="60" y="668"/>
			<point x="87" y="641"/>
		</contour>
	</outline>
</glyph>
<glyph name="infinity" format="2">
	<advance width="1962"/>
	<unicode hex="221E"/>
	<outline>
		<contour>
			<point x="556" y="366" type="curve" smooth="yes"/>
			<point x="371" y="366"/>
			<point x="220" y="517"/>
			<point x="220" y="703" type="curve" smooth="yes"/>
			<point x="220" y="736"/>
			<point x="193" y="763"/>
			<point x="160" y="763" type="curve" smooth="yes"/>
			<point x="127" y="763"/>
			<point x="100" y="736"/>
			<point x="100" y="703" type="curve" smooth="yes"/>
			<point x="100" y="451"/>
			<point x="305" y="246"/>
			<point x="556" y="246" type="curve" smooth="yes"/>
			<point x="589" y="246"/>
			<point x="616" y="273"/>
			<point x="616" y="306" type="curve" smooth="yes"/>
			<point x="616" y="339"/>
			<point x="589" y="366"/>
		</contour>
		<contour>
			<point x="556" y="1065" type="curve" smooth="yes"/>
			<point x="766" y="1065"/>
			<point x="921" y="909"/>
			<point x="921" y="700" type="curve" smooth="yes"/>
			<point x="921" y="433"/>
			<point x="1138" y="215"/>
			<point x="1406" y="215" type="curve" smooth="yes"/>
			<point x="1439" y="215"/>
			<point x="1466" y="242"/>
			<point x="1466" y="275" type="curve" smooth="yes"/>
			<point x="1466" y="308"/>
			<point x="1439" y="335"/>
			<point x="1406" y="335" type="curve" smooth="yes"/>
			<point x="1196" y="335"/>
			<point x="1041" y="491"/>
			<point x="1041" y="700" type="curve" smooth="yes"/>
			<point x="1041" y="967"/>
			<point x="824" y="1185"/>
			<point x="556" y="1185" type="curve" smooth="yes"/>
			<point x="523" y="1185"/>
			<point x="496" y="1158"/>
			<point x="496" y="1125" type="curve" smooth="yes"/>
			<point x="496" y="1092"/>
			<point x="523" y="1065"/>
		</contour>
		<contour>
			<point x="1406" y="1040" type="curve" smooth="yes"/>
			<point x="1591" y="1040"/>
			<point x="1742" y="889"/>
			<point x="1742" y="703" type="curve" smooth="yes"/>
			<point x="1742" y="670"/>
			<point x="1769" y="643"/>
			<point x="1802" y="643" type="curve" smooth="yes"/>
			<point x="1835" y="643"/>
			<point x="1862" y="670"/>
			<point x="1862" y="703" type="curve" smooth="yes"/>
			<point x="1862" y="955"/>
			<point x="1657" y="1160"/>
			<point x="1406" y="1160" type="curve" smooth="yes"/>
			<point x="1373" y="1160"/>
			<point x="1346" y="1133"/>
			<point x="1346" y="1100" type="curve" smooth="yes"/>
			<point x="1346" y="1067"/>
			<point x="1373" y="1040"/>
		</contour>
	</outline>
</glyph>
<glyph name="integral" format="2">
	<advance width="896"/>
	<unicode hex="222B"/>
	<outline>
		<contour>
			<point x="388" y="458" type="curve" smooth="yes"/>
			<point x="388" y="148" type="line" smooth="yes"/>
			<point x="388" y="22"/>
			<point x="286" y="-80"/>
			<point x="160" y="-80" type="curve" smooth="yes"/>
			<point x="127" y="-80"/>
			<point x="100" y="-107"/>
			<point x="100" y="-140" type="curve" smooth="yes"/>
			<point x="100" y="-173"/>
			<point x="127" y="-200"/>
			<point x="160" y="-200" type="curve" smooth="yes"/>
			<point x="352" y="-200"/>
			<point x="508" y="-44"/>
			<point x="508" y="148" type="curve" smooth="yes"/>
			<point x="508" y="458" type="line" smooth="yes"/>
			<point x="508" y="491"/>
			<point x="481" y="518"/>
			<point x="448" y="518" type="curve" smooth="yes"/>
			<point x="415" y="518"/>
			<point x="388" y="491"/>
		</contour>
		<contour>
			<point x="508" y="942" type="curve" smooth="yes"/>
			<point x="508" y="1252" type="line" smooth="yes"/>
			<point x="508" y="1378"/>
			<point x="610" y="1480"/>
			<point x="736" y="1480" type="curve" smooth="yes"/>
			<point x="769" y="1480"/>
			<point x="796" y="1507"/>
			<point x="796" y="1540" type="curve" smooth="yes"/>
			<point x="796" y="1573"/>
			<point x="769" y="1600"/>
			<point x="736" y="1600" type="curve" smooth="yes"/>
			<point x="544" y="1600"/>
			<point x="388" y="1444"/>
			<point x="388" y="1252" type="curve" smooth="yes"/>
			<point x="388" y="942" type="line" smooth="yes"/>
			<point x="388" y="909"/>
			<point x="415" y="882"/>
			<point x="448" y="882" type="curve" smooth="yes"/>
			<point x="481" y="882"/>
			<point x="508" y="909"/>
		</contour>
	</outline>
</glyph>
<glyph name="notequal" format="2">
	<advance width="1007"/>
	<unicode hex="2260"/>
	<outline>
		<contour>
			<point x="223" y="65" type="curve" smooth="yes"/>
			<point x="246" y="65"/>
			<point x="266" y="78"/>
			<point x="276" y="97" type="curve" smooth="yes"/>
			<point x="838" y="1248" type="line" smooth="yes"/>
			<point x="854" y="1280"/>
			<point x="836" y="1335"/>
			<point x="784" y="1335" type="curve" smooth="yes"/>
			<point x="761" y="1335"/>
			<point x="741" y="1322"/>
			<point x="731" y="1303" type="curve" smooth="yes"/>
			<point x="169" y="152" type="line" smooth="yes"/>
			<point x="153" y="120"/>
			<point x="171" y="65"/>
		</contour>
		<contour>
			<point x="120" y="395" type="curve" smooth="yes"/>
			<point x="157" y="395" type="line" smooth="yes"/>
			<point x="190" y="395"/>
			<point x="217" y="422"/>
			<point x="217" y="455" type="curve" smooth="yes"/>
			<point x="217" y="488"/>
			<point x="190" y="515"/>
			<point x="157" y="515" type="curve" smooth="yes"/>
			<point x="120" y="515" type="line" smooth="yes"/>
			<point x="87" y="515"/>
			<point x="60" y="488"/>
			<point x="60" y="455" type="curve" smooth="yes"/>
			<point x="60" y="422"/>
			<point x="87" y="395"/>
		</contour>
		<contour>
			<point x="392" y="1004" type="curve" smooth="yes"/>
			<point x="120" y="1004" type="line" smooth="yes"/>
			<point x="87" y="1004"/>
			<point x="60" y="977"/>
			<point x="60" y="944" type="curve" smooth="yes"/>
			<point x="60" y="911"/>
			<point x="87" y="884"/>
			<point x="120" y="884" type="curve" smooth="yes"/>
			<point x="392" y="884" type="line" smooth="yes"/>
			<point x="425" y="884"/>
			<point x="452" y="911"/>
			<point x="452" y="944" type="curve" smooth="yes"/>
			<point x="452" y="977"/>
			<point x="425" y="1004"/>
		</contour>
		<contour>
			<point x="615" y="395" type="curve" smooth="yes"/>
			<point x="887" y="395" type="line" smooth="yes"/>
			<point x="920" y="395"/>
			<point x="947" y="422"/>
			<point x="947" y="455" type="curve" smooth="yes"/>
			<point x="947" y="488"/>
			<point x="920" y="515"/>
			<point x="887" y="515" type="curve" smooth="yes"/>
			<point x="615" y="515" type="line" smooth="yes"/>
			<point x="582" y="515"/>
			<point x="555" y="488"/>
			<point x="555" y="455" type="curve" smooth="yes"/>
			<point x="555" y="422"/>
			<point x="582" y="395"/>
		</contour>
		<contour>
			<point x="887" y="1004" type="curve" smooth="yes"/>
			<point x="850" y="1004" type="line" smooth="yes"/>
			<point x="817" y="1004"/>
			<point x="790" y="977"/>
			<point x="790" y="944" type="curve" smooth="yes"/>
			<point x="790" y="911"/>
			<point x="817" y="884"/>
			<point x="850" y="884" type="curve" smooth="yes"/>
			<point x="887" y="884" type="line" smooth="yes"/>
			<point x="920" y="884"/>
			<point x="947" y="911"/>
			<point x="947" y="944" type="curve" smooth="yes"/>
			<point x="947" y="977"/>
			<point x="920" y="1004"/>
		</contour>
	</outline>
</glyph>
